<?xml version="1.0" standalone="no"?>
<!DOCTYPE svg PUBLIC "-//W3C//DTD SVG 1.1//EN" "http://www.w3.org/Graphics/SVG/1.1/DTD/svg11.dtd" >
<svg xmlns="http://www.w3.org/2000/svg">
<metadata>
Created by FontPrep 20130207 at Sun Oct  6 17:39:41 2013
 By Casimir Lancaster
Copyright (c) 2013 by Belancio Inc. All rights reserved.
</metadata>
<defs>
<font id="d273f2b17af35a29b2d7665aeb6deba9" horiz-adv-x='1024' >
  <font-face 
    font-family="LushIcons-Regular"
    font-weight="400"
    font-stretch="normal"
    units-per-em="2048"
    panose-1="0 0 5 0 0 0 0 0 0 0"
    ascent="1536"
    descent="-512"
    x-height="1072"
    cap-height="1536"
    bbox="0 -515 2048 1539"
    underline-thickness="50"
    underline-position="-50"
    unicode-range="U+000D-F212"
  />
<missing-glyph horiz-adv-x="1920" 
d="M960 0q54 0 91 -37t37 -91t-37 -91t-91 -37t-91 37t-37 91t37 91t91 37zM978 1088q100 0 169 -69t69 -165t-64 -174l-256 -248q-32 -48 -32 -84t32 -68t80 -32t80 32q32 21 32 72h128q0 -96 -68 -164t-166 -68t-174 64q-72 72 -72 174t72 162l248 256q32 20 32 70t-32 82
t-78 32t-80 -32t-34 -80h-128q0 100 72 170q70 70 170 70zM128 1280v-1664h1664v1664h-1664zM1920 -512h-1920v1920h1920v-1920z" />
    <glyph glyph-name="crosshair" unicode="Crosshair" horiz-adv-x="1920" 
d="M1024 -512h-128v256h64q-136 0 -260 50t-216 135t-153 203q-60 118 -72 252h-259v128h259q23 254 203 434t434 203v259h128v-259q254 -23 434 -203t203 -434h259v-128h-259q-12 -134 -72 -252q-61 -118 -153 -203t-216 -135t-260 -50h64v-256zM960 1024q-118 0 -224 -46
t-184 -122q-78 -78 -122 -184q-46 -106 -46 -224t46 -224t122 -184q78 -78 184 -122q106 -46 224 -46t224 46t184 122q78 78 122 184q46 106 46 224t-46 224t-122 184q-78 78 -184 122q-106 46 -224 46z" />
    <glyph glyph-name="search" unicode="Search" horiz-adv-x="1856" 
d="M704 1280q-118 0 -224 -46t-184 -122q-78 -78 -122 -184q-46 -106 -46 -224t46 -224t122 -184q78 -78 184 -122q106 -46 224 -46t224 46t184 122q78 78 122 184q46 106 46 224t-46 224t-122 184q-78 78 -184 122q-106 46 -224 46zM704 1408q144 0 274 -56t224 -150
t150 -224t56 -274q0 -255 -163 -450l592 -593q19 -18 19 -45q0 -28 -18 -46t-46 -18q-27 0 -45 19l-593 592q-195 -163 -450 -163q-144 0 -274 56t-224 150t-150 224t-56 274t56 274t150 224t224 150t274 56z" />
    <glyph glyph-name="zoomin" unicode="Zoomin" horiz-adv-x="1856" 
d="M768 768h256v-128h-256v-256h-128v256h-256v128h256v256h128v-256zM704 1280q-118 0 -224 -46t-184 -122q-78 -78 -122 -184q-46 -106 -46 -224t46 -224t122 -184q78 -78 184 -122q106 -46 224 -46t224 46t184 122q78 78 122 184q46 106 46 224t-46 224t-122 184
q-78 78 -184 122q-106 46 -224 46zM704 1408q144 0 274 -56t224 -150t150 -224t56 -274q0 -255 -163 -450l592 -593q19 -18 19 -45q0 -28 -18 -46t-46 -18q-27 0 -45 19l-593 592q-195 -163 -450 -163q-144 0 -274 56t-224 150t-150 224t-56 274t56 274t150 224t224 150
t274 56z" />
    <glyph glyph-name="zoomout" unicode="Zoomout" horiz-adv-x="1856" 
d="M1024 640h-640v128h640v-128zM704 1280q-118 0 -224 -46t-184 -122q-78 -78 -122 -184q-46 -106 -46 -224t46 -224t122 -184q78 -78 184 -122q106 -46 224 -46t224 46t184 122q78 78 122 184q46 106 46 224t-46 224t-122 184q-78 78 -184 122q-106 46 -224 46zM704 1408
q144 0 274 -56t224 -150t150 -224t56 -274q0 -255 -163 -450l592 -593q19 -18 19 -45q0 -28 -18 -46t-46 -18q-27 0 -45 19l-593 592q-195 -163 -450 -163q-144 0 -274 56t-224 150t-150 224t-56 274t56 274t150 224t224 150t274 56z" />
    <glyph glyph-name="eye" unicode="Eye" 
d="M1020 768q-106 0 -178 -74q-74 -74 -74 -182t74 -182t178 -74q106 0 183 74t77 182t-77 182t-183 74zM1023 1024q251 0 471 -102q210 -97 340 -206q131 -110 190 -176l24 -28q-135 -165 -366 -310q-322 -202 -661 -202q-252 0 -466 99t-345 210t-186 175l-24 28
q136 168 362 310q320 202 661 202zM1024 896q156 0 270 -112t114 -270t-114 -272t-270 -114q311 0 606 191q139 90 242 193q-274 272 -620 356q-114 28 -228 28zM1024 896q-318 0 -608 -190q-134 -88 -240 -194q274 -274 614 -356q114 -28 231 -28q-159 0 -270 114t-111 272
q0 160 111 271t273 111z" />
    <glyph glyph-name="eyedropper" unicode="Eyedropper" 
d="M1056 736l-832 -832q-8 -68 -64 -200l40 -40q131 56 208 64l824 832zM1610 1408q-58 0 -106 -32q-1 -1 -132 -139t-188 -189q-64 -64 -168 -64h-32l432 -424l64 -72v32q0 104 72 176q28 24 172 168t148 144q32 48 32 104t-22 116q-22 59 -58 100q-36 36 -96 58t-118 22z
M1608 520q0 -48 24 -104l-128 -128l-176 176l-864 -864q-57 0 -129 -24t-115 -48l-44 -24l-176 176q38 57 71 144t33 144l856 864l-176 176l128 128q48 -24 100 -24t84 30q85 80 256 256l64 66q72 72 174 72q202 0 322 -120q56 -61 88 -140t32 -156q0 -128 -72 -200
l-320 -320q-32 -32 -32 -80z" />
    <glyph glyph-name="preloader" unicode="Preloader" horiz-adv-x="1918" 
d="M1021 -510h-128v384h128v-384zM1493 -350l-111 -64l-192 332l111 64zM726 -80l-192 -333l-111 64l192 333zM1821 24l-64 -111l-333 192l64 111zM492 107l-332 -192l-64 111l332 192zM1918 383h-384v128h384v-128zM384 387h-384v128h384v-128zM1822 872l-332 -192l-64 111
l332 192zM494 793l-64 -111l-333 192l64 111zM1495 1247l-192 -333l-111 64l192 333zM728 980l-111 -64l-192 332l111 64zM1025 1024h-128v384h128v-384z" />
    <glyph glyph-name="crop" unicode="Crop" 
d="M1664 -512h-128v384h128v-384zM640 1024v-896h896v896h-896zM384 1024h-384v128h384v-128zM640 1152h1024v-1024h384v-128h-1536v1536h128v-384z" />
    <glyph glyph-name="layer" unicode="Layer" 
d="M128 768v-1152h1152v512h-640v640h-512zM768 1408v-1152h1152v1152h-1152zM2048 128h-640v-640h-1408v1408h640v640h1408v-1408z" />
    <glyph glyph-name="link" unicode="Link" horiz-adv-x="1664" 
d="M1216 1280q186 0 318 -130q130 -130 130 -318q0 -186 -130 -316t-312 -132h-779q-131 -2 -223 -94t-92 -226t93 -227t227 -93t228 94t93 222v196h128v-196q0 -181 -132 -313q-133 -131 -317 -131t-317 131q-131 133 -131 317t130 314t312 134h780q128 2 221 95t93 225
t-94 226t-226 94t-226 -94t-94 -219l1 -199h-128l-1 199q0 86 38 171q38 84 93 139q131 131 317 131z" />
    <glyph glyph-name="move" unicode="Move" horiz-adv-x="1920" 
d="M1024 512h651l-147 147l91 90l301 -301l-301 -301l-91 90l147 147h-651v-651l147 147l90 -91l-301 -301l-301 301l90 91l147 -147v651h-651l147 -147l-91 -90l-301 301l301 301l91 -90l-147 -147h651v651l-147 -147l-90 91l301 301l301 -301l-90 -91l-147 147v-651z" />
    <glyph glyph-name="pen" unicode="Pen" 
d="M128 -384h203l1325 1325l-203 203l-1325 -1325v-203zM1544 1235l203 -203l120 120l-203 203zM0 -512v384l1664 1664l384 -384l-1664 -1664h-384z" />
    <glyph glyph-name="compose" unicode="Compose" 
d="M512 3h203l942 941l-203 203l-942 -941v-203zM1544 1238l203 -203l120 120l-203 203zM1332 1283h-1204v-1664h1664v1203h128v-1331h-1920v1920h1332v-128zM384 -125v384l1280 1280l384 -384l-1280 -1280h-384z" />
    <glyph glyph-name="inbox" unicode="Inbox" 
d="M1920 128h-485q-41 -110 -143 -183t-268 -73t-268 73t-143 183h-485v-512h1792v512zM717 256q-1 -82 57 -154q81 -101 250 -102q125 0 194 50q68 50 90 107q22 58 22 85l1 14h586l-128 640h-1530l-128 -640h586zM384 1408v-384h1280v384h-1280zM2048 -512h-2048v768
l256 1280h1536l256 -1280v-768z" />
    <glyph glyph-name="attachment" unicode="Paperclip" horiz-adv-x="1873" 
d="M1404 1498q149 0 251 -102t102 -249q0 -90 -33 -163t-71 -111l-941 -942q-68 -68 -154 -68t-153 67q-66 68 -66 149q0 30 15 75t53 83l724 724l90 -91l-724 -724q-30 -30 -30 -63q-1 -33 29 -63t60 -29q30 0 65 30l942 942q66 70 66 174q-1 105 -65 169t-160 64
q-61 0 -111 -22q-51 -22 -72 -43l-977 -978q-116 -115 -116 -281t116 -280q116 -116 280 -116t281 116l977 978l91 -91l-978 -977q-153 -154 -372 -154t-371 154t-152 370q0 217 153 372l978 977q37 39 112 71t161 32z" />
    <glyph glyph-name="plane" unicode="Airplane" 
d="M738 32l103 -342l296 198l13 -5l542 1084zM1269 -165l417 -167l166 1333zM251 378l402 -251l1141 1120zM1792 -512l-580 232l-3 -5l-57 29l-384 -256l-154 512l-614 384l2048 1152z" />
    <glyph glyph-name="mail" unicode="Mail" 
d="M128 -128h1792v1190l-896 -897l-896 897v-1190zM219 1152l805 -805l805 805h-1610zM2048 -256h-2048v1536h2048v-1536z" />
    <glyph glyph-name="comments" unicode="Comments" 
d="M128 640v-640h512v-75l75 75h437v640h-1024zM896 1280v-512h384v-128h181l75 -75v75h384v640h-1024zM2048 512h-384v-256l-256 256h-128v-640h-512l-256 -256v256h-512v896h768v640h1280v-896z" />
    <glyph glyph-name="comment" unicode="Comment" 
d="M128 1280v-1280h693l203 -203v203h896v1280h-1792zM2048 -128h-896v-384l-384 384h-768v1536h2048v-1536z" />
    <glyph glyph-name="dialogue" unicode="Dialogue" 
d="M1536 768q52 0 90 -38t38 -90t-38 -90t-90 -38t-90 38t-38 90t38 90t90 38zM1024 768q52 0 90 -38t38 -90t-38 -90t-90 -38t-90 38t-38 90t38 90t90 38zM512 768q52 0 90 -38t38 -90t-38 -90t-90 -38t-90 38t-38 90t38 90t90 38zM128 1280v-1280h693l203 -203v203h896
v1280h-1792zM2048 -128h-896v-384l-384 384h-768v1536h2048v-1536z" />
    <glyph glyph-name="ellipsisthree" unicode="Ellipsis" 
d="M1792 640q-52 0 -90 -38t-38 -90t38 -90t90 -38t90 38t38 90t-38 90t-90 38zM1024 640q-52 0 -90 -38t-38 -90t38 -90t90 -38t90 38t38 90t-38 90t-90 38zM256 640q-52 0 -90 -38t-38 -90t38 -90t90 -38t90 38t38 90t-38 90t-90 38zM1792 768q106 0 181 -75t75 -181
t-75 -181t-181 -75t-181 75t-75 181t75 181t181 75zM1024 768q106 0 181 -75t75 -181t-75 -181t-181 -75t-181 75t-75 181t75 181t181 75zM256 768q106 0 181 -75t75 -181t-75 -181t-181 -75t-181 75t-75 181t75 181t181 75z" />
    <glyph glyph-name="ellipsistwo" unicode="Ellipsistwo" horiz-adv-x="1280" 
d="M1024 640q-52 0 -90 -38t-38 -90t38 -90t90 -38t90 38t38 90t-38 90t-90 38zM256 640q-52 0 -90 -38t-38 -90t38 -90t90 -38t90 38t38 90t-38 90t-90 38zM1024 768q106 0 181 -75t75 -181t-75 -181t-181 -75t-181 75t-75 181t75 181t181 75zM256 768q106 0 181 -75
t75 -181t-75 -181t-181 -75t-181 75t-75 181t75 181t181 75z" />
    <glyph glyph-name="ellipsisone" unicode="Ellipsisone" horiz-adv-x="512" 
d="M256 640q-52 0 -90 -38t-38 -90t38 -90t90 -38t90 38t38 90t-38 90t-90 38zM256 768q106 0 181 -75t75 -181t-75 -181t-181 -75t-181 75t-75 181t75 181t181 75z" />
    <glyph glyph-name="quote" unicode="Quote" horiz-adv-x="1664" 
d="M1536 764v4q0 106 -75 181t-181 75t-181 -75t-75 -181t75 -181t181 -75h62l38 -49q26 -32 40 -85q116 201 116 386zM640 764v4q0 106 -75 181t-181 75t-181 -75t-75 -181t75 -181t181 -75h62l38 -49q26 -32 40 -85q116 201 116 386zM1280 1152q160 0 272 -112t112 -272
v-4q0 -350 -326 -710q-86 -94 -186 -182q153 240 153 406q0 72 -26 106q-159 0 -271 112t-112 272t112 272t272 112zM384 1152q160 0 272 -112t112 -272v-4q0 -350 -326 -710q-86 -94 -186 -182q153 240 153 406q0 72 -26 106q-159 0 -271 112t-112 272t112 272t272 112z
" />
    <glyph glyph-name="person" unicode="Person" horiz-adv-x="1536" 
d="M1152 512h-768q-137 0 -208 -82q-42 -49 -48 -114v-700h1280v688q0 29 -16 69q-16 39 -39 67q-25 28 -77 50t-124 22zM768 1408q-156 0 -270 -114t-114 -270t114 -270t270 -114t270 114t114 270t-114 270t-270 114zM256 1024q0 103 41 198q41 96 109 164t164 109
q95 41 198 41t198 -41q96 -41 164 -109t109 -164q41 -95 41 -198q0 -235 -176 -384h48q100 0 178 -33t120 -85q86 -104 86 -218v-816h-1536v816q0 114 86 218q42 52 120 85t178 33h48q-176 149 -176 384z" />
    <glyph glyph-name="people" unicode="People" 
d="M256 384q-52 0 -73 -18q-37 -33 -45 -59q-8 -25 -10 -44v-647h1024v640q0 54 -33 91t-95 37h-768zM1792 768h-768q0 -133 -96 -256h96q120 0 188 -75t68 -173v-264h640v640q0 79 -66 114q-26 14 -62 14zM637 1024q-105 0 -179 -74t-74 -182t74 -182t178 -74t176 67
t84 165v48q-12 102 -83 167t-176 65zM1408 1408q-108 0 -182 -74t-74 -182t74 -182t182 -74t182 74t74 182t-74 182t-182 74zM1410 1536q160 0 271 -111t111 -259t-96 -270h96q162 0 224 -136q32 -56 32 -120v-768h-768v-384h-1280v768q0 104 68 180t188 76h96
q-96 123 -96 270q0 146 114 258t254 112q142 0 241 -71t135 -185h120q-96 123 -96 270q0 146 114 258q112 112 272 112z" />
    <glyph glyph-name="heart" unicode="Heart" horiz-adv-x="1946" 
d="M1434 1152q-152 0 -268 -116l-193 -193l-193 193q-116 116 -268 116t-268 -116t-116 -267t113 -266l732 -640l732 640q113 115 113 266t-116 267t-268 116zM1434 1280q204 0 358 -154t154 -358q0 -205 -154 -358l-819 -717l-819 717q-154 153 -154 358q0 204 154 358
t358 154q205 0 359 -154l102 -102l102 102q154 154 359 154z" />
    <glyph glyph-name="halfheart" unicode="Halfheart" horiz-adv-x="1944" 
d="M512 1152q-152 0 -268 -116t-116 -267t113 -266l604 -528v996l-65 65q-116 116 -268 116zM512 1280q205 0 359 -154l102 -102v-1152h-10l13 -8l-3 -171l-819 717q-154 153 -154 358q0 204 154 358t358 154z" />
    <glyph glyph-name="star" unicode="Star" horiz-adv-x="1792" 
d="M727 640h-386l321 -281l-147 -406l381 267l381 -267l-147 406l321 281h-386l-169 423zM1152 768h640l-512 -448l256 -704l-640 448l-640 -448l256 704l-512 448h640l256 640z" />
    <glyph glyph-name="halfstar" unicode="Halfstar" horiz-adv-x="1792" 
d="M727 640h-386l321 -281l-147 -406l253 178v612zM896 64l-640 -448l256 704l-512 448h640l256 640v-1344z" />
    <glyph glyph-name="thumbsup" unicode="Thumbsup" horiz-adv-x="1792" 
d="M128 -256q0 -52 18 -73q33 -37 59 -45q25 -8 44 -10h775q381 0 521 144q119 122 119 375q0 254 -128 377q0 6 -352 430l-117 142q-45 68 -107 68q-31 0 -61 -18q-66 -39 -66 -113q0 -27 13 -66l183 -315h-773q-79 0 -114 -66q-14 -26 -14 -57t7 -52t19 -34q34 -38 95 -47
q-121 -17 -121 -128q0 -52 18 -73q33 -37 59 -45q25 -8 44 -10q-121 -17 -121 -128q0 -52 18 -73q33 -37 59 -45q25 -8 44 -10q-121 -17 -121 -128zM1792 128q0 -372 -242 -527q-175 -113 -526 -113h-768q-142 0 -218 117q-38 59 -38 135t31 132q-31 56 -31 128t31 128
q-31 56 -31 128t31 128q-31 56 -31 132t38 135q75 117 218 117h550l-71 123q-29 44 -29 128q0 150 128 226q62 35 128 35t122 -36t87 -86l486 -593l1 -4q134 -156 134 -433z" />
    <glyph glyph-name="thumbsdown" unicode="Thumbsdown" horiz-adv-x="1792" 
d="M1664 768q0 52 -18 73q-33 37 -59 45q-25 8 -44 10q121 17 121 128q0 52 -18 73q-33 37 -59 45q-25 8 -44 10h-776q-269 0 -405 -64q-234 -111 -234 -448q0 -261 128 -384q0 -6 352 -430l117 -142q45 -68 107 -68q31 0 61 18q66 39 66 113q0 27 -13 66l-183 315h773
q79 0 114 66q14 26 14 57t-7 52t-19 34q-34 38 -95 47q121 17 121 128q0 52 -18 73q-33 37 -59 45q-25 8 -44 10q121 17 121 128zM1792 768q0 -70 -31 -128q31 -58 31 -128t-32 -128q32 -58 32 -132t-38 -135q-75 -117 -218 -117h-551l75 -129q26 -61 26 -122
q0 -150 -129 -226q-61 -35 -127 -35t-122 36t-88 86l-486 593v4q-134 156 -134 433q0 372 241 527q176 113 527 113h768q142 0 218 -117q38 -61 38 -135t-32 -132q32 -58 32 -128z" />
    <glyph glyph-name="home" unicode="Home" 
d="M384 512v-896h384v512h512v-512h384v896h72l-32 40l-680 688l-680 -688l-32 -40h72zM1792 384v-896h-640v512h-256v-512h-640v896h-256l256 256l768 784l768 -784l256 -256h-256z" />
    <glyph glyph-name="shoppingcart" unicode="Shoppingcart" horiz-adv-x="2000" 
d="M472 896l192 -640h1024l152 640h-1368zM1792 -128v-128h-128q0 -54 -37 -91t-91 -37t-91 37t-37 91h-384q0 -54 -37 -91t-91 -37t-91 37t-37 91h-80l-424 1408h-264v130l352 -2l80 -256h1568l-208 -896h-1088l72 -256h1016z" />
    <glyph glyph-name="shoppingbag" unicode="Shoppingbag" horiz-adv-x="1792" 
d="M128 768v-1152h1536v1152h-1536zM1280 1024v-128h331l-128 128h-203zM640 1024v-128h512v128h-512zM512 896v128h-203l-128 -128h331zM640 1152h512q0 80 -48 154q-65 101 -208 102q-139 0 -208 -100q-42 -61 -48 -142v-14zM896 1536q157 0 244 -76q83 -73 110 -157
q27 -85 29 -130l1 -21h256l256 -256v-1408h-1792v1408l256 256h256q0 122 72 232q99 152 312 152z" />
    <glyph glyph-name="bag" unicode="Bag" horiz-adv-x="1792" 
d="M1280 640v-256q0 -122 -72 -232q-99 -152 -312 -153q-157 0 -242 74t-112 160q-27 85 -29 130l-1 21v256h128v-256q0 -82 48 -156q65 -102 208 -101q105 0 161 50q86 76 95 193v270h128zM128 768v-1152h1536v1152h-1536zM309 1024l-128 -128h1430l-128 128h-1174z
M1792 -512h-1792v1408l256 256h1280l256 -256v-1408z" />
    <glyph glyph-name="case" unicode="Briefcase" 
d="M1280 256v-128h-512v128h-640v-512h1792v512h-640zM128 896v-512h1792v512h-1792zM768 1024h512q0 80 -48 154q-65 102 -208 102q-139 0 -208 -100q-42 -61 -48 -142v-14zM2048 1024v-1408h-2048v1408h640q0 122 72 232q99 151 312 152q157 0 244 -76q83 -73 110 -157
q27 -85 29 -130l1 -21h640z" />
    <glyph glyph-name="luggage" unicode="Luggage" 
d="M1664 896v-1152h256v1152h-256zM512 896v-1152h1024v1152h-1024zM128 896v-1152h256v1152h-256zM768 1024h512q0 80 -48 154q-65 102 -208 102q-139 0 -208 -100q-42 -61 -48 -142v-14zM2048 1024v-1408h-2048v1408h640q0 122 72 232q99 151 312 152q157 0 244 -76
q83 -73 110 -157q27 -85 29 -130l1 -21h640z" />
    <glyph glyph-name="tag" unicode="Tag" 
d="M1600 1152q-26 0 -45 -19t-19 -45t19 -45t45 -19t45 19t19 45t-19 45t-45 19zM1600 1280q80 0 136 -56t56 -136t-56 -136t-136 -56t-136 56t-56 136t56 136t136 56zM1920 1408h-587l-1152 -1152l587 -587l1152 1152v587zM2048 1536v-768l-1280 -1280l-768 768l1280 1280
h768z" />
    <glyph glyph-name="bookmarker" unicode="Bookmark" horiz-adv-x="768" 
d="M128 1408v-1611l256 256l256 -256v1611h-512zM0 1536h768v-2048l-384 384l-384 -384v2048z" />
    <glyph glyph-name="bookmarks" unicode="Bookmarks" horiz-adv-x="1024" 
d="M128 1152v-1355l256 256l256 -256v1355h-512zM384 1408v-128h384v-1099l128 -128v1355h-512zM0 1280h256v256h768v-1792l-256 256v-512l-384 384l-384 -384v1792z" />
    <glyph glyph-name="flag" unicode="Flag" 
d="M768 1280v-768h971l-384 384l384 384h-971zM128 1408v-768h512v768h-512zM768 1408h1280l-512 -512l512 -512h-1408v128h-512v-1024h-128v2048h768v-128z" />
    <glyph glyph-name="procamera" unicode="Camera" 
d="M1024 640q-106 0 -181 -75t-75 -181t75 -181t181 -75t181 75t75 181t-75 181t-181 75zM1024 768q160 0 272 -112t112 -272t-112 -272t-272 -112t-272 112t-112 272t112 272t272 112zM128 896v-1024h1792v1024h-463l-128 256h-610l-128 -256h-463zM2048 1024v-1280h-2048
v1280h512l128 256h768l128 -256h512z" />
    <glyph glyph-name="vintagecamera" unicode="Vintagecamera" 
d="M1024 640q-106 0 -181 -75t-75 -181t75 -181t181 -75t181 75t75 181t-75 181t-181 75zM1728 768q26 0 45 -19t19 -45t-19 -45t-45 -19t-45 19t-19 45t19 45t45 19zM1024 768q160 0 272 -112t112 -272t-112 -272t-272 -112t-272 112t-112 272t112 272t272 112zM128 896
v-1024h1792v1024h-1792zM128 1152v-128h384v128h-384zM640 1024h1408v-1280h-2048v1536h640v-256z" />
    <glyph glyph-name="photo" unicode="Photo" 
d="M512 256h88l88 112l-48 56zM760 256h784l-392 552zM1792 128h-1536l384 512l120 -160l392 544zM128 1152v-1280h1792v1280h-1792zM2048 -256h-2048v1536h2048v-1536z" />
    <glyph glyph-name="video" unicode="Video" 
d="M896 354l263 158l-263 158v-316zM1408 512l-640 -384v768zM128 1152v-1280h1792v1280h-1792zM2048 -256h-2048v1536h2048v-1536z" />
    <glyph glyph-name="videocamera" unicode="Videocamera" 
d="M1372 512l548 -391v782zM128 1024v-1024h1152v1024h-1152zM1408 -128h-1408v1280h1408v-457l640 457v-1280l-640 457v-457z" />
    <glyph glyph-name="mic" unicode="Microphone" horiz-adv-x="1280" 
d="M1152 384h128q0 -142 -60 -272t-178 -229q-118 -98 -274 -127v-140h256v-128h-768v128h256v140q-156 29 -274 127q-118 99 -178 229t-60 272h128q0 -141 84 -280t240 -199q86 -33 188 -33t188 33q155 59 240 199q84 139 84 280zM384 768v-384q0 -60 60 -150
q29 -44 81 -75t115 -31t115 31t81 75q60 90 60 150v384h-512zM640 1408q-63 0 -115 -31t-81 -75q-60 -90 -60 -150v-256h512v256q0 60 -60 150q-29 44 -81 75t-115 31zM640 1536q74 0 138 -28q113 -48 179 -157q67 -110 67 -199v-768q0 -89 -67 -199q-67 -109 -179 -157
q-64 -28 -138 -28t-138 28q-113 48 -179 157q-67 110 -67 199v768q0 89 67 199q67 109 179 157q64 28 138 28z" />
    <glyph glyph-name="musicnote" unicode="Musicnote" horiz-adv-x="1536" 
d="M448 128q-132 0 -226 -75t-94 -181t94 -181t226 -75t226 75t94 181t-94 181t-226 75zM896 988l512 -170v242l-512 170v-242zM896 -128q0 -160 -132 -272t-316 -112t-316 112t-132 272t132 272t318 112q187 0 318 -115v1267l768 -256v-512l-640 213v-981z" />
    <glyph glyph-name="musicnotes" unicode="Musicnotes" 
d="M448 -384q132 0 226 74t94 182t-94 182t-226 74t-226 -74t-94 -182q0 -106 94 -181t226 -75zM1600 -128q132 0 226 75t94 181t-94 182q-94 74 -226 74t-226 -74t-94 -182q0 -106 94 -181t226 -75zM1920 1144v248l-1024 -96v-256zM2048 128q0 -160 -131 -272t-317 -112
t-317 112t-131 273q0 159 130 271t322 112t316 -112v608l-1024 -96v-1040q0 -160 -130 -272t-318 -112q-186 0 -317 112t-131 273q0 159 130 271t322 112t316 -112v1264l1280 128v-1408z" />
    <glyph glyph-name="phone" unicode="Phone" horiz-adv-x="1988" 
d="M1390 126q108 108 193 232q144 209 203 399t71 315l-293 292l-217 -434l208 -208l-25 -76q-53 -159 -165 -315q-112 -155 -296 -255q-116 -63 -199 -90l-76 -25l-208 208l-434 -217l292 -293q139 15 276 58q380 118 670 409zM32 -110q-32 32 -32 70t32 75l580 290
l217 -218q134 45 264 137q131 92 217 236q54 90 76 148l22 59l-217 217l290 580q33 32 73 32t72 -32l362 -362q0 -184 -95 -446q-130 -359 -412 -641q-206 -206 -430 -319q-223 -112 -389 -148t-235 -39l-33 -1z" />
    <glyph glyph-name="mobilephone" unicode="Mobilephone" horiz-adv-x="1280" 
d="M640 0q52 0 90 -38t38 -90t-38 -90t-90 -38t-90 38t-38 90t38 90t90 38zM512 1280h256q26 0 45 -19t19 -45t-19 -45t-45 -19h-256q-26 0 -45 19t-19 45t19 45t45 19zM128 1408v-1792h1024v1792h-1024zM1280 -512h-1280v2048h1280v-2048z" />
    <glyph glyph-name="computermouse" unicode="Mouse" horiz-adv-x="1280" 
d="M640 1150q52 0 90 -38t38 -90t-38 -90t-90 -38t-90 38t-38 90t38 90t90 38zM1152 894q0 214 -143 364t-374 150t-369 -139t-138 -375v-768q0 -234 139 -372t373 -138t374 138q138 138 138 372v768zM640 1536q140 0 262 -52t203 -142q83 -88 129 -204t46 -244v-768
q0 -288 -176 -463t-464 -175t-464 175t-176 463v768q0 288 176 465t464 177z" />
    <glyph glyph-name="desktop" unicode="Desktop" 
d="M128 1152v-1152h1792v1152h-1792zM2048 -128h-896v-128h256v-128h-768v128h256v128h-896v1408h2048v-1408z" />
    <glyph glyph-name="browser" unicode="Browser" 
d="M128 768v-1024h1792v1024h-1792zM832 1152q26 0 45 -19t19 -45t-19 -45t-45 -19t-45 19t-19 45t19 45t45 19zM576 1152q26 0 45 -19t19 -45t-19 -45t-45 -19t-45 19t-19 45t19 45t45 19zM320 1152q26 0 45 -19t19 -45t-19 -45t-45 -19t-45 19t-19 45t19 45t45 19z
M128 1280v-384h1792v384h-1792zM2048 -384h-2048v1792h2048v-1792z" />
    <glyph glyph-name="printer" unicode="Printer" 
d="M1792 0h-256v128h256v-128zM128 384v-640h1792v640h-1792zM512 1152v-640h1024v640h-1024zM1664 512h384v-896h-2048v896h384v768h1280v-768z" />
    <glyph glyph-name="laptop" unicode="Laptop" 
d="M256 1024v-1024h1536v1024h-1536zM1920 0h128v-128h-2048v128h128v1152h1792v-1152z" />
    <glyph glyph-name="book" unicode="Book" horiz-adv-x="1920" 
d="M1792 1280h-384q-186 0 -285 -38t-99 -90v-1376q192 96 384 96h384v1408zM128 1280v-1408h384q192 0 384 -96v1376q0 52 -99 90t-285 38h-384zM1920 -256h-512q-146 0 -243 -43t-141 -85h-128q-15 15 -56 41q-137 87 -328 87h-512v1664h512q322 0 448 -112
q126 112 448 112h512v-1664z" />
    <glyph glyph-name="copypaste" unicode="Clipboard" horiz-adv-x="1536" 
d="M1280 1024v-256h-1024v256h-128v-1408h1280v1408h-128zM384 1152v-256h768v256h-768zM640 1280h256q-9 128 -128 128q-79 0 -104 -48q-24 -48 -24 -80zM1024 1280h256v-128h256v-1664h-1536v1664h256v128h256q0 80 48 154q65 102 208 102q139 0 208 -100q42 -61 48 -142
v-14z" />
    <glyph glyph-name="news" unicode="Newspaper" 
d="M1792 0h-640v128h640v-128zM640 384v-256h256v256h-256zM1792 384h-640v128h640v-128zM1024 0h-512v512h512v-512zM1792 768h-1280v128h1280v-128zM256 -256v1152h-116l105 -1152h11zM384 1152v-1408h1536v1408h-1536zM2048 -384h-1920l-128 1408h256v256h1792v-1664z
" />
    <glyph glyph-name="pin" unicode="Pin" horiz-adv-x="1228" 
d="M614 1408q-99 0 -189 -38t-155 -104q-66 -65 -104 -155q-38 -89 -38 -173t56 -220t118 -245l312 -679l310 674l2 5q62 111 118 247t56 218q0 83 -38 173t-104 155q-65 66 -155 104t-189 38zM614 1536q124 0 238 -48t196 -132q82 -82 132 -196q48 -114 48 -214
q0 -102 -48 -230t-94 -217l-48 -89l-424 -922l-424 922q-118 204 -170 390q-20 72 -20 122q0 124 48 238t132 196q82 82 196 132q114 48 238 48z" />
    <glyph glyph-name="location" unicode="Location" horiz-adv-x="1229" 
d="M614 1024q-52 0 -90 -38t-38 -90t38 -90t90 -38t90 38t38 90t-38 90t-90 38zM614 1152q106 0 182 -75t75 -181q1 -106 -75 -181t-182 -75t-181 75t-75 181t75 181t181 75zM614 1408q-99 0 -189 -38t-155 -104q-66 -65 -104 -155t-38 -173t59 -228t118 -242l309 -674
l308 669l2 5q55 92 116 240q61 147 61 230q-1 83 -39 173t-104 155q-66 66 -155 104q-90 38 -189 38zM614 1536q125 0 239 -48q115 -48 197 -132q82 -82 130 -196t49 -252q0 -138 -171 -462l-20 -36l-424 -922l-423 922q-119 208 -171 390q-20 72 -20 122q0 124 48 238
t132 196q82 82 196 132q114 48 238 48z" />
    <glyph glyph-name="map" unicode="Map" 
d="M1664 -132l256 -154v1442l-256 154v-1442zM640 -132l384 -231v1443l-384 230v-1442zM1152 1156v-1442l384 230v1443zM128 1156v-1442l384 230v1443zM2048 1229v-1741l-512 307l-512 -307l-512 307l-512 -307v1741l512 307l512 -307l512 307z" />
    <glyph glyph-name="compass" unicode="Compass" 
d="M1024 576q24 0 44 -20t20 -44t-20 -44t-44 -20t-44 20t-20 44t20 44t44 20zM872 664l-160 -464l464 160l160 464zM1280 256l-768 -256l256 768l768 256zM1024 1408q-183 0 -349 -71q-165 -71 -285 -191t-191 -285q-71 -166 -71 -349t71 -349q71 -165 191 -285t285 -191
q166 -71 349 -71t349 71q165 71 285 191t191 285q71 166 71 349t-71 349q-71 165 -191 285t-285 191q-166 71 -349 71zM1024 1536q140 0 273 -36t245 -103t206 -161t161 -206t103 -245t36 -273t-36 -273t-103 -245t-161 -206t-206 -161t-245 -103t-273 -36t-273 36t-245 103
t-206 161t-161 206t-103 245t-36 273t36 273t103 245t161 206t206 161t245 103t273 36z" />
    <glyph glyph-name="navigation" unicode="Navigation" horiz-adv-x="1920" 
d="M345 532l524 -175l175 -524l611 1310zM1024 -512l-256 768l-768 256l1920 896z" />
    <glyph glyph-name="glasses" unicode="Eyeglasses" 
d="M1600 768q-132 0 -226 -94t-94 -226t94 -226t226 -94t226 94t94 226t-94 226t-226 94zM448 768q-132 0 -226 -94t-94 -226t94 -226t226 -94t226 94t94 226t-94 226t-226 94zM1600 896q186 0 317 -131t131 -317t-131 -317t-317 -131t-317 131t-131 317q0 56 8 80
q-64 32 -134 32t-138 -40q8 -24 8 -72q0 -186 -131 -317t-317 -131t-317 131t-131 317t131 317t317 131q129 0 237 -68t163 -180q94 40 188 40t164 -40q54 114 162 181t238 67z" />
    <glyph glyph-name="address" unicode="Address" horiz-adv-x="1920" 
d="M1664 0v512h-1227l-256 -256l256 -256h1227zM256 1408v-512h1227l256 256l-256 256h-1227zM1024 768v-128h768v-768h-768v-384h-128v384h-512l-384 384l384 384h512v128h-768v768h1408l384 -384l-384 -384h-512z" />
    <glyph glyph-name="globe" unicode="Globe" horiz-adv-x="1920" 
d="M1661 0h-192q-56 -178 -150 -302q213 102 342 302zM1024 0v-375q192 56 311 375h-311zM896 0h-311q119 -319 311 -375v375zM451 0h-192q129 -200 342 -302q-94 124 -150 302zM1536 416q0 -131 -33 -288h225q64 155 64 320q0 97 -23 192h-245q12 -93 12 -224zM1024 640
v-512h348q36 150 36 286t-13 226h-371zM896 640h-371q-13 -90 -13 -226t36 -286h348v512zM128 448q0 -165 64 -320h225q-33 157 -33 288t12 224h-245q-23 -95 -23 -192zM1319 1198q130 -172 184 -430h225q-59 142 -165 253t-244 177zM601 1198q-138 -66 -244 -177t-165 -253
h225q54 258 184 430zM1024 768h348q-38 165 -114 293q-103 172 -234 210v-503zM896 768v503q-131 -38 -234 -210q-76 -128 -114 -293h348zM960 1408q195 0 373 -76q179 -76 307 -204t204 -307q76 -178 76 -373t-76 -373q-76 -179 -204 -307t-307 -204q-178 -76 -373 -76
t-373 76q-179 76 -307 204t-204 307q-76 178 -76 373t76 373q76 179 204 307t307 204q178 76 373 76z" />
    <glyph glyph-name="lightbulb" unicode="Lightbulb" horiz-adv-x="1342" 
d="M807 -512h-256v128h256v-128zM935 -256h-512v128h512v-128zM660 1408q-130 0 -258 -72q-126 -72 -200 -198q-74 -125 -74 -263t80 -266q80 -127 143 -205q62 -79 104 -135q41 -55 76 -141h290q29 98 117 209q208 265 252 395q24 70 24 158t-42 188q-42 101 -112 173
q-72 73 -171 115t-229 42zM677 1536q183 0 335 -90t241 -244t89 -337q0 -216 -208 -485q-26 -34 -64 -82q-79 -99 -107 -159t-28 -82l-8 -56l-56 -1h-433l-13 47q-25 85 -163 260q-138 174 -200 307t-62 251q0 183 91 337t247 244t339 90z" />
    <glyph glyph-name="flashlight" unicode="Flashlight" 
d="M1024 -256q52 0 90 -38t38 -90t-38 -90t-90 -38t-90 38t-38 90t38 90t90 38zM1658 6q54 0 90 -38q38 -38 38 -90t-38 -90t-90 -38t-90 38t-38 90q0 54 37 91t91 37zM262 -122q0 52 38 90t90 38q54 0 91 -37t37 -91t-38 -90q-38 -38 -90 -38t-90 38t-38 90zM1920 640
q52 0 90 -38t38 -90t-38 -90t-90 -38t-90 38t-38 90t38 90t90 38zM128 640q52 0 90 -38t38 -90t-38 -90t-90 -38t-90 38t-38 90t38 90t90 38zM1024 912q-166 0 -283 -117t-117 -283t117 -283t283 -117t283 117t117 283t-117 283t-283 117zM1024 1024q212 0 362 -150
t150 -362t-150 -362t-362 -150t-362 150t-150 362t150 362t362 150zM1530 1146q0 54 38 90q38 38 90 38t90 -38t38 -90t-38 -90t-90 -38q-54 0 -91 37t-37 91zM390 1274q52 0 90 -38t38 -90q0 -54 -37 -91t-91 -37t-90 38q-38 38 -38 90t38 90t90 38zM1024 1536q52 0 90 -38
t38 -90t-38 -90t-90 -38t-90 38t-38 90t38 90t90 38z" />
    <glyph glyph-name="gauge" unicode="Gauge" horiz-adv-x="1920" 
d="M1598 512q26 0 46 -20t20 -46t-20 -44t-46 -18q-28 0 -45 17t-17 45t18 46q18 20 44 20zM322 512q26 0 44 -20t18 -44t-18 -44t-44 -20t-46 20t-20 44t20 44t46 20zM896 436q0 -28 16 -44q16 -8 44 -8t36 8t15 19q16 24 39 71q23 48 50 102q-160 -80 -180 -100t-20 -48z
M1576 764q0 -60 -70 -60q-30 0 -50 32q-8 8 -8 38t32 50l32 8q16 0 40 -14q24 -13 24 -54zM399 832q33 0 41 -8q32 -32 32 -56t-8 -32q-20 -32 -50 -32t-38 8q-32 12 -32 46t8 42q14 32 47 32zM958 256q-82 0 -142 48q-48 48 -48 132t40 124q72 72 426 228l118 52
q-68 -164 -152 -336t-112 -200q-48 -48 -130 -48zM1216 990q0 74 54 74q34 0 42 -8q32 -32 32 -56t-8 -32q-20 -32 -50 -32t-38 8q-32 12 -32 46zM650 1064q34 0 46 -32q8 -8 8 -38t-32 -50q-8 -8 -32 -8t-56 32q-8 8 -8 32t32 56q8 8 42 8zM960 1152q24 0 44 -20t20 -46
t-20 -44t-44 -18t-44 18t-20 44t20 46t44 20zM960 1280q-168 0 -322 -66t-266 -178t-178 -266t-66 -322t66 -322t178 -266t266 -178t322 -66t322 66t266 178t178 266t66 322t-66 322t-178 266t-266 178t-322 66zM960 1408q194 0 372 -76t306 -206q128 -128 206 -306
q76 -178 76 -372t-76 -372t-206 -306q-128 -128 -306 -206q-178 -76 -372 -76t-372 76t-306 206q-128 128 -206 306q-76 178 -76 372t76 372t206 306q128 128 306 206q178 76 372 76z" />
    <glyph glyph-name="alarm" unicode="Bell" horiz-adv-x="1792" 
d="M768 -384h256q0 -79 -66 -114q-26 -14 -57 -14t-52 7t-34 19q-38 34 -47 95v7zM896 1152q-232 0 -372 -154t-140 -409v-461q0 -132 -151 -256h1325q-150 125 -150 256v461q0 255 -140 409t-372 154zM1024 1408v-139q236 -42 374 -228t138 -452v-461q0 -90 166 -202
q38 -26 64 -40l26 -14v-128h-1792v128q160 80 228 180q28 40 28 76v461q0 266 138 452t374 228v139h256z" />
    <glyph glyph-name="clock" unicode="Clock" horiz-adv-x="1920" 
d="M896 1024h128v-609l296 -237l-80 -100l-344 275v671zM960 1280q-169 0 -323 -66q-153 -66 -265 -178t-178 -265q-66 -154 -66 -323t66 -323q66 -153 178 -265t265 -178q154 -66 323 -66t323 66q153 66 265 178t178 265q66 154 66 323t-66 323q-66 153 -178 265t-265 178
q-154 66 -323 66zM960 1408q195 0 373 -76q179 -76 307 -204t204 -307q76 -178 76 -373t-76 -373q-76 -179 -204 -307t-307 -204q-178 -76 -373 -76t-373 76q-179 76 -307 204t-204 307q-76 178 -76 373t76 373q76 179 204 307t307 204q178 76 373 76z" />
    <glyph glyph-name="stopwatch" unicode="Stopwatch" horiz-adv-x="1792" 
d="M896 256h-128v640h128v-640zM1461 896l75 -75l75 75l-75 75zM832 1024q-191 0 -353 -94q-163 -94 -257 -257q-94 -162 -94 -353t94 -353q94 -163 257 -257q162 -94 353 -94t353 94q163 94 257 257q94 162 94 353t-94 353q-94 163 -257 257q-162 94 -353 94zM768 1280
v-128h128v128h-128zM1024 1408v-279q181 -42 329 -160l183 183l256 -256l-212 -212q84 -171 84 -352q0 -182 -66 -336t-178 -265t-265 -177q-154 -66 -323 -66t-323 66q-153 66 -265 177t-178 265t-66 336t83 352t229 286t328 159v279h384z" />
    <glyph glyph-name="fullcalendar" unicode="Calendar" horiz-adv-x="1920" 
d="M1664 -128h-384v384h384v-384zM1152 -128h-384v384h384v-384zM640 -128h-384v384h384v-384zM1664 384h-384v384h384v-384zM1152 384h-384v384h384v-384zM640 384h-384v384h384v-384zM1536 1280v-256h-128v256h-896v-256h-128v256h-256v-1664h1664v1664h-256zM1920 -512
h-1920v1920h1920v-1920z" />
    <glyph glyph-name="addcalendar" unicode="Addcalendar" horiz-adv-x="1920" 
d="M1024 384h384v-128h-384v-384h-128v384h-384v128h384v384h128v-384zM1536 1280v-256h-128v256h-896v-256h-128v256h-256v-1664h1664v1664h-256zM1920 1408v-1920h-1920v1920h1920z" />
    <glyph glyph-name="removecalendar" unicode="Removecalendar" horiz-adv-x="1920" 
d="M1408 256h-896v128h896v-128zM1536 1280v-256h-128v256h-896v-256h-128v256h-256v-1664h1664v1664h-256zM1920 1408v-1920h-1920v1920h1920z" />
    <glyph glyph-name="declinecalendar" unicode="Declinecalendar" horiz-adv-x="1920" 
d="M1325 595l-274 -275l274 -275l-90 -90l-275 274l-275 -274l-90 90l274 275l-274 275l90 90l275 -275l275 275zM1536 1280v-256h-128v256h-896v-256h-128v256h-256v-1664h1664v1664h-256zM1920 1408v-1920h-1920v1920h1920z" />
    <glyph glyph-name="confirmcalendar" unicode="Confirmcalendar" horiz-adv-x="1920" 
d="M1454 621l-687 -715l-302 333l94 86l210 -231l593 616zM1536 1280v-256h-128v256h-896v-256h-128v256h-256v-1664h1664v1664h-256zM1920 1408v-1920h-1920v1920h1920z" />
    <glyph glyph-name="openbook" unicode="Openbook" horiz-adv-x="1920" 
d="M1024 1040v-1389l768 308v1388zM128 -41l768 -308v1389l-768 307v-1388zM1920 -128l-960 -384l-960 384v1664l960 -384l960 384v-1664z" />
    <glyph glyph-name="textbook" unicode="Textbook" horiz-adv-x="1920" 
d="M1664 128l-512 -192v128l512 192v-128zM768 64v-128l-512 192v128zM1664 512l-512 -192v128l512 192v-128zM768 448v-128l-512 192v128zM1664 896l-512 -192v128l512 192v-128zM768 832v-128l-512 192v128zM1024 1040v-1389l768 308v1388zM128 -41l768 -308v1389
l-768 307v-1388zM1920 -128l-960 -384l-960 384v1664l960 -384l960 384v-1664z" />
    <glyph glyph-name="textdocument" unicode="Textdocument" horiz-adv-x="1536" 
d="M1152 0h-768v128h768v-128zM1152 384h-768v128h768v-128zM1152 768h-768v128h768v-128zM128 1280v-1664h1280v1664h-1280zM1536 -512h-1536v1920h1536v-1920z" />
    <glyph glyph-name="file" unicode="File" horiz-adv-x="1536" 
d="M1024 896h331l-331 331v-331zM128 1280v-1664h1280v1152h-512v512h-768zM1536 -512h-1536v1920h1024l512 -512v-1408z" />
    <glyph glyph-name="textfile" unicode="Textfile" horiz-adv-x="1536" 
d="M1152 0h-768v128h768v-128zM1152 384h-768v128h768v-128zM768 768h-384v128h384v-128zM1024 896h331l-331 331v-331zM128 1280v-1664h1280v1152h-512v512h-768zM1536 -512h-1536v1920h1024l512 -512v-1408z" />
    <glyph glyph-name="largefile" unicode="Largefile" 
d="M1536 768h331l-331 331v-331zM128 1152v-1408h1792v896h-512v512h-1280zM2048 -384h-2048v1664h1536l512 -512v-1152z" />
    <glyph glyph-name="largetextfile" unicode="Largetextfile" 
d="M1664 0h-1280v128h1280v-128zM1664 384h-1280v128h1280v-128zM1280 768h-896v128h896v-128zM1536 768h331l-331 331v-331zM128 1152v-1408h1792v896h-512v512h-1280zM2048 -384h-2048v1664h1536l512 -512v-1152z" />
    <glyph glyph-name="folder" unicode="Folder" 
d="M128 1152v-1280h1792v1152h-1280v128h-512zM2048 1152v-1408h-2048v1536h768v-128h1280z" />
    <glyph glyph-name="openfolder" unicode="Openfolder" 
d="M359 768l-199 -896h1529l199 896h-1529zM128 1152v-832l128 576h1408v128h-1075v128h-461zM717 1152h1075v-256h256l-256 -1152h-1792v1536h717v-128z" />
    <glyph glyph-name="upload" unicode="Upload" horiz-adv-x="1920" 
d="M1920 -512h-1920v128h1920v-128zM1024 128h-128v1125l-403 -403l-90 91l557 557l557 -557l-90 -91l-403 403v-1125z" />
    <glyph glyph-name="download" unicode="Download" horiz-adv-x="1920" 
d="M1920 -512h-1920v124h1920v-124zM896 1532h128v-1125l403 402l90 -90l-557 -557l-557 557l90 90l403 -402v1125z" />
    <glyph glyph-name="fullcloud" unicode="Cloud" horiz-adv-x="1920" 
d="M878 1024q-170 0 -312 -120t-174 -304l-13 -77l-74 -23q-79 -26 -128 -94t-49 -162t75 -169t181 -75h1088q90 0 166 49t114 121q40 72 40 150q0 129 -92 223t-220 97l-82 2l-33 75q-61 139 -189 223t-298 84zM896 1152q194 0 353 -106t234 -278q181 -5 309 -135t128 -313
q0 -114 -58 -216t-162 -167t-228 -65h-1088q-160 0 -272 112t-112 256q0 143 74 243t191 138q39 227 217 379t414 152z" />
    <glyph glyph-name="downloadcloud" unicode="Downloadcloud" horiz-adv-x="1920" 
d="M896 640h128v-778l275 274l90 -91l-431 -429l-427 429l90 91l275 -276v780zM896 1152q194 0 353 -106t234 -278q181 -5 309 -135t128 -313q0 -114 -58 -216t-162 -167t-228 -65h-64v128h64q90 0 166 49t114 121q40 72 40 150q0 129 -92 223t-220 97l-82 2l-33 75
q-61 139 -189 223t-298 84t-312 -120t-174 -304l-13 -77l-74 -23q-79 -26 -128 -94t-49 -162t75 -169t181 -75h128v-128h-128q-160 0 -272 112t-112 256q0 143 74 243t191 138q39 227 217 379t414 152z" />
    <glyph glyph-name="uploadcloud" unicode="Uploadcloud" horiz-adv-x="1920" 
d="M1024 -384h-128v778l-275 -274l-90 91l431 429l427 -429l-90 -91l-275 276v-780zM896 1152q194 0 353 -106t234 -278q181 -5 309 -135t128 -313q0 -114 -58 -216t-162 -167t-228 -65h-64v128h64q90 0 166 49t114 121q40 72 40 150q0 129 -92 223t-220 97l-82 2l-33 75
q-61 139 -189 223t-298 84t-312 -120t-174 -304l-13 -77l-74 -23q-79 -26 -128 -94t-49 -162t75 -169t181 -75h128v-128h-128q-160 0 -272 112t-112 256q0 143 74 243t191 138q39 227 217 379t414 152z" />
    <glyph glyph-name="reply" unicode="Reply" horiz-adv-x="1792" 
d="M1792 768v-1024h-128v896h-1419l403 -403l-91 -90l-557 557l557 557l91 -91l-403 -402h1547z" />
    <glyph glyph-name="replyall" unicode="Replyall" horiz-adv-x="1792" 
d="M1792 768v-1024h-128v896h-1035l403 -403l-91 -90l-557 557l557 557l91 -91l-403 -402h1163zM648 1170l-467 -466l467 -467l-91 -90l-557 557l557 557z" />
    <glyph glyph-name="forward" unicode="Forward" horiz-adv-x="1792" 
d="M128 640v-896h-128v1024h1547l-403 402l91 91l557 -557l-557 -557l-91 90l403 403h-1419z" />
    <glyph glyph-name="drive" unicode="Drive" horiz-adv-x="1920" 
d="M1600 -128q26 0 45 -19t19 -45t-19 -45t-45 -19t-45 19t-19 45t19 45t45 19zM1613 0h-1306q-53 0 -101 -41t-68 -101l-10 -70l1 -6v-9l2 -9l1 -8l19 -48l9 -15l10 -13l6 -7q57 -57 131 -57h1306q41 0 59 9l20 10l8 4q5 3 16 9t32 31q22 26 32 46t10 33t1 15v9l1 6l-10 70
q-20 60 -68 101t-101 41zM1408 1408h-896q-74 0 -126 -52t-53 -127v-9l-161 -1129q63 37 135 37h1306q72 0 135 -37l-160 1120l-1 9v9q-1 75 -53 127t-126 52zM512 1536h896q127 0 217 -90t90 -217l192 -1343q13 -49 13 -91q0 -127 -90 -217t-217 -90h-1306q-127 0 -217 90
t-90 217q0 42 13 91l192 1343q0 127 90 217t217 90z" />
    <glyph glyph-name="drivedownload" unicode="Drivedownload" horiz-adv-x="1920" 
d="M1600 -128q26 0 45 -19t19 -45t-19 -45t-45 -19t-45 19t-19 45t19 45t45 19zM307 -384h1306q41 0 59 9l20 10l8 4q5 3 16 9t32 31q22 26 32 46t10 33t1 15v9l1 6l-10 70q-20 60 -68 101t-101 41h-1306q-54 0 -102 -42t-67 -101l-10 -68l1 -11v-2l7 -33v-2l6 -14v-2
l16 -28v-1l10 -13q0 -2 2 -2l24 -25l14 -10l15 -9l10 -5l22 -8l10 -3l7 -1q22 -4 35 -4zM896 1536h128v-1035l275 275l90 -91l-429 -429l-429 429l90 91l275 -275v1035zM1152 1536h256q127 0 217 -90t90 -217l192 -1343q13 -49 13 -91q0 -127 -90 -217t-217 -90h-1306
q-127 0 -217 90t-90 217q0 42 13 91l192 1343q0 127 90 217t217 90h256v-128h-256q-74 0 -126 -52t-53 -127v-9l-162 -1129q66 37 136 37h1306q72 0 135 -37l-160 1120l-1 9v9q-1 75 -53 127t-126 52h-256v128z" />
    <glyph glyph-name="save" unicode="Save" horiz-adv-x="1792" 
d="M640 1280v-512h512v512h-512zM1280 1280v-640h-768v640h-384v-1536h1536v1227l-309 309h-75zM1792 -384h-1792v1792h1408l384 -384v-1408z" />
    <glyph glyph-name="emptytrash" unicode="Emptytrash" horiz-adv-x="1536" 
d="M1408 -128v1067q-106 -79 -278 -125t-362 -46t-362 46t-278 125v-1067q0 -40 43 -82t119 -79q201 -95 478 -95t478 95q76 37 119 79t43 82zM1024 1024h-128v128h-256v-128h-128v256h512v-256zM768 1408q-277 0 -478 -95q-76 -37 -119 -79t-43 -82t43 -82t119 -79
q201 -95 478 -95t478 95q76 37 119 79t43 82t-43 82t-119 79q-201 95 -478 95zM768 1536q198 0 374 -48t284 -138q110 -90 110 -198v-1280q0 -108 -110 -198t-284 -138q-176 -48 -374 -48t-374 48t-284 138q-110 90 -110 198v1280q0 108 110 198t284 138q176 48 374 48z" />
    <glyph glyph-name="trash" unicode="Trash" horiz-adv-x="1536" 
d="M1408 -128v1067q-106 -79 -278 -125t-362 -46t-362 46t-278 125v-1067q0 -40 43 -82t119 -79q201 -95 478 -95t478 95q76 37 119 79t43 82zM768 1408q-277 0 -478 -95q-76 -37 -119 -79t-43 -82t43 -82t119 -79q201 -95 478 -95t478 95q76 37 119 79t43 82t-43 82
t-119 79q-201 95 -478 95zM768 1536q198 0 374 -48t284 -138q110 -90 110 -198v-1280q0 -108 -110 -198t-284 -138q-176 -48 -374 -48t-374 48t-284 138q-110 90 -110 198v1280q0 108 110 198t284 138q176 48 374 48z" />
    <glyph glyph-name="blocked" unicode="Block" 
d="M1024 -384q182 0 348 71t286 191t191 286t71 338q0 338 -212 588l-1269 -1256q252 -218 585 -218zM1024 1408q-182 0 -348 -71t-286 -191t-191 -286t-71 -340q0 -341 221 -596l1269 1258q-256 226 -594 226zM1024 1536q208 0 398 -81t327 -218t218 -327t81 -398t-81 -398
t-218 -327t-327 -218t-398 -81t-398 81t-327 218t-218 327t-81 398t81 398t218 327t327 218t398 81z" />
    <glyph glyph-name="locked" unicode="Lock" horiz-adv-x="1536" 
d="M768 256q-54 0 -91 -37t-37 -91t37 -91t91 -37t91 37t37 91t-37 91t-91 37zM768 384q108 0 182 -74t74 -182t-74 -182t-182 -74t-182 74t-74 182t74 182t182 74zM128 640v-1024h1280v1024h-1280zM768 1280q-194 0 -244 -180q-10 -36 -12 -76v-256h512v256q0 72 -40 144
q-62 112 -216 112zM768 1408q157 0 244 -76q83 -73 110 -157q27 -85 29 -130l1 -21v-256h384v-1280h-1536v1280h384v256q0 122 72 232q99 152 312 152z" />
    <glyph glyph-name="unlocked" unicode="Unlock" horiz-adv-x="1792" 
d="M768 256q-54 0 -91 -37t-37 -91t37 -91t91 -37t91 37t37 91t-37 91t-91 37zM768 384q108 0 182 -74t74 -182t-74 -182t-182 -74t-182 74t-74 182t74 182t182 74zM128 640v-1024h1280v1024h-1280zM1408 1408q157 0 244 -76q83 -73 110 -157q27 -85 29 -130l1 -21v-256
h-128v256q0 80 -48 154q-65 102 -206 102t-210 -100q-42 -61 -48 -142v-270h384v-1280h-1536v1280h1024v256q0 122 72 232q99 152 312 152z" />
    <glyph glyph-name="secure" unicode="Key" horiz-adv-x="1990" 
d="M1392 960q-34 0 -57 -24t-23 -56t24 -56t56 -24t56 24t24 56q0 34 -23 57t-57 23zM1392 1088q86 0 147 -61t61 -147t-61 -147t-147 -61t-147 61t-61 147t61 147t147 61zM1376 1350q-200 0 -344 -142q-142 -144 -142 -345q0 -65 16 -125l20 -76l-798 -719v-327h128v128
h128v128h128v128h128v128h209l336 283l65 -17q63 -17 126 -17q201 0 344 143q142 144 142 344t-142 344q-144 142 -344 142zM1376 1478q254 0 434 -180t180 -434t-180 -435q-180 -180 -434 -180q-81 0 -159 21l-321 -270h-128v-128h-128v-128h-128v-128h-128v-128h-384v512
l782 705q-21 79 -21 179t46 213t134 201q181 180 435 180z" />
    <glyph glyph-name="settings" unicode="Settings" 
d="M1024 640q-52 0 -90 -38t-38 -90t38 -90t90 -38t90 38t38 90t-38 90t-90 38zM1024 768q106 0 181 -75t75 -181t-75 -181t-181 -75t-181 75t-75 181t75 181t181 75zM988 1408l-88 -265l-63 -19q-57 -18 -113 -47l-59 -31l-249 125l-51 -51l125 -249l-31 -59
q-29 -56 -47 -113l-19 -63l-265 -88v-72l265 -88l19 -63q18 -57 47 -113l31 -59l-125 -249l51 -51l249 125l59 -31q56 -29 113 -47l63 -19l88 -265h72l88 265l63 19q57 18 113 47l59 31l249 -125l51 51l-125 249l31 59q29 56 47 113l19 63l265 88v72l-265 88l-19 63
q-18 57 -47 113l-31 59l125 249l-51 51l-249 -125l-59 31q-56 29 -113 47l-63 19l-88 265h-72zM1152 1536l96 -289q70 -22 137 -57l273 137l181 -181l-137 -273q34 -63 57 -136l289 -97v-256l-289 -96q-22 -70 -57 -137l137 -273l-181 -181l-273 137q-64 -34 -137 -57
l-96 -289h-256l-96 289q-70 22 -137 57l-273 -137l-181 181l137 273q-34 64 -57 137l-289 96v256l289 96q22 70 57 137l-137 273l181 181l273 -137q64 34 137 57l96 289h256z" />
    <glyph glyph-name="database" unicode="Database" horiz-adv-x="1536" 
d="M1408 -128v171q-106 -79 -278 -125t-362 -46t-362 46t-278 125v-171q0 -40 43 -82t119 -79q201 -95 478 -95t478 95q76 37 119 79t43 82zM1408 256v171q-106 -79 -278 -125t-362 -46t-362 46t-278 125v-171q0 -40 43 -82t119 -79q201 -95 478 -95t478 95q76 37 119 79
t43 82zM1408 640v171q-106 -79 -278 -125t-362 -46t-362 46t-278 125v-171q0 -40 43 -82t119 -79q201 -95 478 -95t478 95q76 37 119 79t43 82zM768 1280q-277 0 -478 -95q-76 -37 -119 -79t-43 -82t43 -82t119 -79q201 -95 478 -95t478 95q76 37 119 79t43 82t-43 82
t-119 79q-201 95 -478 95zM768 1408q198 0 374 -48t284 -138q110 -90 110 -198v-1152q0 -108 -110 -198t-284 -138q-176 -48 -374 -48t-374 48t-284 138q-110 90 -110 198v1152q0 108 110 198t284 138q176 48 374 48z" />
    <glyph glyph-name="box" unicode="Box" horiz-adv-x="1920" 
d="M1024 761v-1110l768 308v1106l-4 2zM128 1065v-1106l768 -308v1110l-764 306zM302 1135l658 -261l656 262l-656 262zM1920 1152v-1280l-960 -384l-960 384v1280l960 384z" />
    <glyph glyph-name="creditcard" unicode="Creditcard" 
d="M128 512v-640h1792v640h-1792zM128 768v-128h1792v128h-1792zM128 1152v-256h1792v256h-1792zM2048 -256h-2048v1536h2048v-1536z" />
    <glyph glyph-name="bargraph" unicode="Bargraph" 
d="M128 256v-640h256v640h-256zM512 -512h-512v896h512v-896zM896 768v-1152h256v1152h-256zM1280 -512h-512v1408h512v-1408zM1664 1408v-1792h256v1792h-256zM2048 -512h-512v2048h512v-2048z" />
    <glyph glyph-name="piechart" unicode="Piechart" horiz-adv-x="1920" 
d="M1152 256h-886q44 -280 254 -460t504 -180q162 0 304 59t244 161t161 244t59 304q0 294 -180 504t-460 254v-886zM768 640v630q-248 -38 -420 -210t-210 -420h630zM1024 384v896q188 0 354 -69t286 -187q118 -118 187 -286q69 -166 69 -354t-69 -354t-187 -286
q-118 -118 -286 -187q-166 -69 -354 -69t-354 69t-286 187q-118 118 -187 286q-69 166 -69 354h896zM896 512h-896q0 188 69 354t187 286q118 118 286 187q166 69 354 69v-896z" />
    <glyph glyph-name="barchart" unicode="Barchart" horiz-adv-x="1886" 
d="M1886 1237l-941 -941l-256 256l-254 -254l513 -586l848 847l90 -90l-945 -944l-597 682l-250 -250l-91 91l256 256l-259 296l97 84l253 -289l339 338l256 -256l851 850z" />
    <glyph glyph-name="chart" unicode="Chart" 
d="M1920 -128v1062l-633 -738l-263 263l-384 -384l-117 117l-257 -320h1654zM2048 -256h-2048l512 640l128 -128l384 384l256 -256l768 896v-1536z" />
    <glyph glyph-name="dimlight" unicode="Dimlight" horiz-adv-x="1408" 
d="M766 -256h-128v256h128v-256zM1246 -6l-91 -90l-181 181l91 90zM431 87l-181 -181l-90 91l181 181zM1408 382h-256v128h256v-128zM256 386h-256v128h256v-128zM706 640q-80 0 -136 -56t-56 -136t56 -136t136 -56t136 56t56 136t-56 136t-136 56zM706 768q132 0 226 -94
t94 -226t-94 -226t-226 -94t-226 94t-94 226t94 226t226 94zM1248 899l-181 -181l-90 91l181 181zM434 811l-91 -90l-181 181l91 90zM770 896h-128v256h128v-256z" />
    <glyph glyph-name="light" unicode="Light" horiz-adv-x="1916" 
d="M1022 -508h-128v384h128v-384zM1681 -182l-91 -91l-271 272l90 90zM597 -1l-271 -272l-91 91l272 271zM1916 386h-384v128h384v-128zM384 386h-384v128h384v-128zM958 768q-132 0 -226 -94t-94 -226t94 -226t226 -94t226 94t94 226t-94 226t-226 94zM958 896
q184 0 316 -132t132 -316t-132 -316t-316 -132t-316 132t-132 316t132 316t316 132zM1681 1082l-272 -271l-90 90l271 272zM597 901l-90 -90l-272 271l91 91zM1022 1024h-128v384h128v-384z" />
    <glyph glyph-name="contrast" unicode="Contrast" horiz-adv-x="1916" 
d="M1024 -512h-128v384h128v-384zM1688 -184l-96 -96l-272 272l96 96zM600 -8l-272 -272l-88 96l272 272zM1920 384h-384v128h384v-128zM384 384h-384v128h384v-128zM1280 445q0 115 -73 203t-183 112v-624q108 18 182 106t74 203zM640 445q0 -115 74 -203t182 -106v624
q-110 -24 -183 -112t-73 -203zM960 896q186 0 317 -131t131 -317t-131 -317t-317 -131t-317 131t-131 317t131 317t317 131zM1688 1080l-272 -272l-96 96l272 272zM600 904l-88 -96l-272 272l88 96zM1024 1024h-128v384h128v-384z" />
    <glyph glyph-name="fullbattery" unicode="Battery" 
d="M1664 256h-384v512h384v-512zM1152 256h-384v512h384v-512zM640 256h-384v512h384v-512zM128 896v-768h1664v768h-1664zM1920 768h128v-512h-128v-256h-1920v1024h1920v-256z" />
    <glyph glyph-name="mediumbattery" unicode="Mediumbattery" 
d="M1152 256h-384v512h384v-512zM640 256h-384v512h384v-512zM128 896v-768h1664v768h-1664zM1920 768h128v-512h-128v-256h-1920v1024h1920v-256z" />
    <glyph glyph-name="lowbattery" unicode="Lowbattery" 
d="M640 256h-384v512h384v-512zM128 896v-768h1664v768h-1664zM1920 768h128v-512h-128v-256h-1920v1024h1920v-256z" />
    <glyph glyph-name="emptybattery" unicode="Emptybattery" 
d="M128 896v-768h1664v768h-1664zM1920 768h128v-512h-128v-256h-1920v1024h1920v-256z" />
    <glyph glyph-name="voicemail" unicode="Voicemail" 
d="M384 768q-106 0 -181 -75t-75 -181t75 -181t181 -75t181 75t75 181t-75 181t-181 75zM1664 768q-106 0 -181 -75t-75 -181t75 -181t181 -75t181 75t75 181t-75 181t-181 75zM1664 896q160 0 272 -112t112 -272t-112 -272t-272 -112h-1280q-160 0 -272 112t-112 272
t112 272t272 112t272 -112t112 -266q0 -153 -98 -262h708q-98 109 -98 262q0 154 112 266t272 112z" />
    <glyph glyph-name="rss" unicode="Rss" horiz-adv-x="1395" 
d="M0 61v128q180 -11 307 -138t138 -307h-128q-11 126 -100 217q-91 89 -217 100zM0 378v128q314 -8 533 -229q109 -109 167 -247t61 -286h-128q-6 259 -190 443q-183 183 -443 191zM0 694v128q216 -2 412 -84t348 -234t234 -349q82 -196 84 -411h-128q-1 190 -74 362
t-207 307q-135 134 -307 207t-362 74zM0 1011v128q280 1 534 -105t452 -304t304 -452t105 -534h-128q0 254 -96 486t-275 410q-178 179 -410 275t-486 96z" />
    <glyph glyph-name="signal" unicode="Signal" horiz-adv-x="1973" 
d="M986 -61q178 0 315 -120l-91 -91q-98 83 -224 83t-223 -83l-91 91q136 120 314 120zM986 259q154 0 293 -57t246 -160l-91 -90q-190 179 -448 179q-259 0 -448 -179l-90 91q228 216 538 216zM986 578q216 0 412 -80t351 -232l-91 -90q-135 134 -308 204q-174 70 -364 70
t-363 -70t-308 -204l-91 90q154 152 350 232t412 80zM986 899q280 1 534 -105t453 -304l-91 -90q-178 179 -410 275t-486 96t-484 -96q-232 -96 -412 -275l-90 90q198 198 452 304t534 105z" />
    <glyph glyph-name="code" unicode="Code" 
d="M2048 511l-557 -557l-91 90l467 467l-467 467l91 90zM648 977l-467 -465l467 -468l-91 -90l-557 558l557 556z" />
    <glyph glyph-name="infinite" unicode="Infinity" horiz-adv-x="1960" 
d="M1517 824q-56 0 -119 -25t-99 -63l-228 -228l226 -227q92 -89 219 -89v-64l1 64q131 0 223 92t92 224t-92 224t-223 92zM442 824q-130 0 -222 -92t-92 -224t92 -224t211 -92q143 0 233 90l226 226l-227 227q-92 89 -221 89zM1517 952q183 0 313 -130t130 -314
q0 -120 -60 -222t-162 -162t-222 -60q-178 0 -309 126l-227 227l-225 -226q-32 -32 -87 -65q-105 -62 -225 -62q-183 0 -313 130t-130 314t130 314t311 130t312 -126l227 -228l228 228q126 126 309 126z" />
    <glyph glyph-name="highvolume" unicode="Highvolume" 
d="M128 767v-512h437l203 -203v918l-203 -203h-437zM1280 489q0 -277 -176 -493l-91 91q139 177 139 402t-139 402l91 91q176 -216 176 -493zM1664 489q0 -215 -80 -409t-223 -343l-91 90q126 133 196 303t70 359t-70 359t-196 303l91 90q143 -149 223 -343t80 -409zM0 127
v768h512l384 384v-1535l-384 383h-512zM2048 489q0 -289 -112 -548t-313 -453l-91 91q184 175 286 411t102 499t-102 499t-286 411l91 91q201 -194 313 -453t112 -548z" />
    <glyph glyph-name="mediumvolume" unicode="Mediumvolume" horiz-adv-x="1664" 
d="M128 768v-512h437l203 -203v918l-203 -203h-437zM1280 489q0 -278 -176 -492l-91 91q139 177 139 402t-139 401l91 92q176 -216 176 -494zM1664 490q0 -214 -80 -409q-80 -194 -223 -344l-91 90q126 132 196 303t70 360q0 190 -70 360t-196 302l91 90q143 -150 223 -344
t80 -408zM0 128v768h512l384 384v-1536l-384 384h-512z" />
    <glyph glyph-name="lowvolume" unicode="Lowvolume" horiz-adv-x="1280" 
d="M128 768v-512h437l203 -203v918l-203 -203h-437zM1280 489q0 -278 -176 -492l-91 91q139 177 139 402t-139 402l91 91q176 -216 176 -494zM0 128v768h512l384 384v-1536l-384 384h-512z" />
    <glyph glyph-name="volume" unicode="Volume" horiz-adv-x="896" 
d="M128 768v-512h437l203 -203v918l-203 -203h-437zM0 128v768h512l384 384v-1536l-384 384h-512z" />
    <glyph glyph-name="wirelessplay" unicode="Wirelessplay" 
d="M657 -128h734l-367 440zM1664 -256h-1280l640 768zM2048 -128h-410v128h282v1024h-1792v-1024h282v-128h-410v1280h2048v-1280z" />
    <glyph glyph-name="play" unicode="Play" horiz-adv-x="1024" 
d="M128 0l683 512l-683 512v-1024zM1024 512l-1024 -768v1536z" />
    <glyph glyph-name="pause" unicode="Pause" horiz-adv-x="1024" 
d="M768 1152v-1280h128v1280h-128zM128 1152v-1280h128v1280h-128zM1024 -256h-384v1536h384v-1536zM384 -256h-384v1536h384v-1536z" />
    <glyph glyph-name="record" unicode="Record" horiz-adv-x="1536" 
d="M768 1152q-130 0 -248 -51t-204 -137t-137 -204t-51 -248t51 -248t137 -204t204 -137t248 -51t248 51t204 137t137 204t51 248t-51 248t-137 204t-204 137t-248 51zM768 1280q210 0 386 -103t279 -279t103 -386t-103 -386t-279 -279t-386 -103t-386 103t-279 279
t-103 386t103 386t279 279t386 103z" />
    <glyph glyph-name="stop" unicode="Stop" horiz-adv-x="1536" 
d="M128 1152v-1280h1280v1280h-1280zM1536 -256h-1536v1536h1536v-1536z" />
    <glyph glyph-name="fastforward" unicode="Fastforward" 
d="M1152 0l683 512l-683 512v-1024zM128 0l683 512l-683 512v-1024zM2048 512l-1024 -768v768l-1024 -768v1536l1024 -768v768z" />
    <glyph glyph-name="fastbackward" unicode="Fastbackward" 
d="M1237 512l683 -512v1024zM213 512l683 -512v1024zM1024 -256l-1024 768l1024 768v-768l1024 768v-1536l-1024 768v-768z" />
    <glyph glyph-name="playforward" unicode="Playforward" horiz-adv-x="1536" 
d="M128 3l683 512l-683 512v-1024zM1280 1155v-1280h128v1280h-128zM1536 -253h-384v1536h384v-1536zM1024 515l-1024 -768v1536z" />
    <glyph glyph-name="playbackward" unicode="Playbackward" horiz-adv-x="1536" 
d="M725 512l683 -512v1024zM128 1152v-1280h128v1280h-128zM1536 -256l-1024 768l1024 768v-1536zM384 -256h-384v1536h384v-1536z" />
    <glyph glyph-name="sound" unicode="Sound" 
d="M128 -256h-128v256h128v-256zM512 -256h-128v512h128v-512zM896 -256h-128v768h128v-768zM1280 -256h-128v1024h128v-1024zM1664 -256h-128v1280h128v-1280zM2048 -256h-128v1536h128v-1536z" />
    <glyph glyph-name="repeat" unicode="Repeat" 
d="M2048 -129h-1803l275 -275l-91 -90l-429 429l429 429l91 -90l-275 -275h1675v640h128v-768zM128 1023v-640h-128v768h1803l-275 275l91 90l429 -429l-429 -429l-91 90l275 275h-1675z" />
    <glyph glyph-name="shuffle" unicode="Shuffle" 
d="M0 -129v128h355l455 512l-455 512h-355v128h413l483 -544l483 544h424l-275 275l91 90l429 -429l-429 -429l-91 90l275 275h-366l-455 -512l455 -512h366l-275 275l91 90l429 -429l-429 -429l-91 90l275 275h-424l-483 544l-483 -544h-413z" />
    <glyph glyph-name="rotateleft" unicode="Rotateleft" horiz-adv-x="2030" 
d="M1198 1280q169 0 323 -66q153 -66 265 -178t178 -265q66 -154 66 -323q0 -170 -66 -324t-178 -265t-265 -177q-154 -66 -323 -66q-234 0 -434 122l64 111q170 -105 366 -105t357 94q163 94 257 257q94 162 94 353t-94 353q-94 163 -257 257q-162 94 -353 94
q-192 0 -354 -94t-256 -257q-94 -162 -95 -353q0 -25 4 -71l271 271l91 -91l-430 -429l-429 429l91 91l278 -279q-4 52 -4 79q0 169 66 323q65 153 177 265t266 178t324 66z" />
    <glyph glyph-name="rotateright" unicode="Rotateright" horiz-adv-x="2030" 
d="M832 1280q170 0 324 -66t266 -178t177 -265q66 -154 66 -323q0 -27 -4 -79l278 279l91 -91l-429 -429l-430 429l91 91l271 -271q4 46 4 71q-1 191 -95 353q-94 163 -256 257t-354 94q-191 0 -353 -94q-163 -94 -257 -257q-94 -162 -94 -353t94 -353q94 -163 257 -257
t357 -94t366 105l64 -111q-200 -122 -434 -122q-169 0 -323 66q-153 66 -265 178t-178 265q-66 154 -66 323t66 323q66 153 178 265t265 178q154 66 323 66z" />
    <glyph glyph-name="recycle" unicode="Recycle" horiz-adv-x="2010" 
d="M1008 -256q-206 0 -384 101l64 112q146 -85 296 -85t270 51q118 51 204 137t136 204q51 118 51 248l-1 11l-146 -147l-90 91l301 301l301 -301l-90 -91l-148 147l1 -11q0 -210 -103 -386q-104 -176 -280 -279t-382 -103zM1002 1280q206 0 384 -101l-64 -112
q-146 85 -296 85t-270 -51q-118 -51 -204 -137t-136 -204q-51 -118 -51 -248l1 -11l146 147l90 -91l-301 -301l-301 301l90 91l148 -147l-1 11q0 210 103 386q104 176 280 279t382 103z" />
    <glyph glyph-name="cycle" unicode="Cycle" horiz-adv-x="1664" 
d="M128 448q0 -181 86 -337t234 -252v333h128v-511h-512v128h236q-140 116 -220 283t-80 356q0 272 158 488t410 301l39 -122q-211 -71 -345 -254t-134 -413zM1536 1148h-255q175 -113 279 -298t104 -402q0 -262 -148 -474t-386 -302l-47 119q201 78 327 257
q126 178 126 390t-105 380t-279 257v-311h-128v512h512v-128z" />
    <glyph glyph-name="backtime" unicode="Backtime" horiz-adv-x="2030" 
d="M1134 899h128v-481l296 -240l-80 -100l-344 279v542zM1198 1280q169 0 323 -66q153 -66 265 -178t178 -265q66 -154 66 -323t-66 -323q-66 -153 -178 -265t-265 -178q-154 -66 -323 -66q-234 0 -434 122l64 111q170 -105 366 -105t357 94q163 94 257 257q94 162 94 353
t-94 353q-94 163 -257 257q-162 94 -353 94q-192 0 -354 -94t-256 -257q-94 -162 -95 -353q0 -25 4 -71l271 271l91 -91l-430 -429l-429 429l91 91l278 -279q-4 52 -4 79q0 169 66 323q65 153 177 265t266 178t324 66z" />
    <glyph glyph-name="back" unicode="Back" 
d="M2048 1153v-1281h-1792v128h1664v1025h-1675l275 -275l-91 -91l-429 430l429 429l91 -91l-275 -274h1803z" />
    <glyph glyph-name="leveldown" unicode="Leveldown" horiz-adv-x="1792" 
d="M128 256h1419l-275 274l91 91l429 -429l-429 -430l-91 91l275 274h-1547v897h128v-768z" />
    <glyph glyph-name="loop" unicode="Loop" 
d="M128 1025v-1025h1792v1025h-512v128h640v-1281h-2048v1281h779l-275 274l91 91l429 -429l-429 -430l-91 91l275 275h-651z" />
    <glyph glyph-name="levelup" unicode="Levelup" horiz-adv-x="1792" 
d="M1792 640v-896h-128v768h-1419l275 -275l-91 -90l-429 429l429 429l91 -90l-275 -275h1547z" />
    <glyph glyph-name="retweet" unicode="Retweet" horiz-adv-x="2010" 
d="M1517 1024h-640v128h768v-1035l275 275l90 -91l-429 -429l-429 429l90 91l275 -275v907zM493 0h640v-128h-768v1043l-275 -275l-90 91l429 429l429 -429l-90 -91l-275 275v-915z" />
    <glyph glyph-name="switch" unicode="Switch" 
d="M128 0v128h1675l-275 275l91 91l429 -430l-429 -429l-91 91l275 274h-1675zM1920 1025v-128h-1675l275 -275l-91 -91l-429 430l429 429l91 -91l-275 -274h1675z" />
    <glyph glyph-name="merge" unicode="Merge" 
d="M0 -128v128h611l394 448l-394 448h-611v128h669l450 -512h684l-275 275l91 90l429 -429l-429 -429l-91 90l275 275h-684l-450 -512h-669z" />
    <glyph glyph-name="check" unicode="Checkmark" horiz-adv-x="1888" 
d="M1888 1242l-1196 -1595l-692 692l90 91l588 -588l1108 1477z" />
    <glyph glyph-name="increase" unicode="Plus" horiz-adv-x="1664" 
d="M896 512h768v-128h-768v-768h-128v768h-768v128h768v768h128v-768z" />
    <glyph glyph-name="decrease" unicode="Minus" horiz-adv-x="1664" 
d="M1664 384h-1664v128h1664v-128z" />
    <glyph glyph-name="close" unicode="Close" horiz-adv-x="1267" 
d="M1267 990l-543 -543l543 -542l-90 -91l-543 543l-543 -543l-91 91l543 542l-543 543l91 91l543 -543l543 543z" />
    <glyph glyph-name="increasemenu" unicode="Increasemenu" horiz-adv-x="1920" 
d="M1024 512h384v-128h-384v-384h-128v384h-384v128h384v384h128v-384zM128 1280v-1664h1664v1664h-1664zM1920 -512h-1920v1920h1920v-1920z" />
    <glyph glyph-name="decreasemenu" unicode="Decreasemenu" horiz-adv-x="1920" 
d="M1408 384h-896v128h896v-128zM128 1280v-1664h1664v1664h-1664zM1920 -512h-1920v1920h1920v-1920z" />
    <glyph glyph-name="closemenu" unicode="Closemenu" horiz-adv-x="1920" 
d="M1325 723l-274 -275l274 -275l-90 -90l-275 274l-275 -274l-90 90l274 275l-274 275l90 90l275 -274l275 274zM128 1280v-1664h1664v1664h-1664zM1920 -512h-1920v1920h1920v-1920z" />
    <glyph glyph-name="increasebutton" unicode="Increasebutton" horiz-adv-x="1920" 
d="M1024 512h384v-128h-384v-384h-128v384h-384v128h384v384h128v-384zM960 1280q-169 0 -323 -66q-153 -66 -265 -178t-178 -265q-66 -154 -66 -323t66 -323q66 -153 178 -265t265 -178q154 -66 323 -66t323 66q153 66 265 178t178 265q66 154 66 323t-66 323
q-66 153 -178 265t-265 178q-154 66 -323 66zM960 1408q195 0 373 -76q179 -76 307 -204t204 -307q76 -178 76 -373t-76 -373q-76 -179 -204 -307t-307 -204q-178 -76 -373 -76t-373 76q-179 76 -307 204t-204 307q-76 178 -76 373t76 373q76 179 204 307t307 204
q178 76 373 76z" />
    <glyph glyph-name="decreasebutton" unicode="Decreasebutton" horiz-adv-x="1920" 
d="M1408 384h-896v128h896v-128zM960 1280q-169 0 -323 -66q-153 -66 -265 -178t-178 -265q-66 -154 -66 -323t66 -323q66 -153 178 -265t265 -178q154 -66 323 -66t323 66q153 66 265 178t178 265q66 154 66 323t-66 323q-66 153 -178 265t-265 178q-154 66 -323 66z
M960 1408q195 0 373 -76q179 -76 307 -204t204 -307q76 -178 76 -373t-76 -373q-76 -179 -204 -307t-307 -204q-178 -76 -373 -76t-373 76q-179 76 -307 204t-204 307q-76 178 -76 373t76 373q76 179 204 307t307 204q178 76 373 76z" />
    <glyph glyph-name="closebutton" unicode="Closebutton" horiz-adv-x="1920" 
d="M1325 723l-274 -275l274 -275l-90 -90l-275 274l-275 -274l-90 90l274 275l-274 275l90 90l275 -274l275 274zM960 1280q-169 0 -323 -66q-153 -66 -265 -178t-178 -265q-66 -154 -66 -323t66 -323q66 -153 178 -265t265 -178q154 -66 323 -66t323 66q153 66 265 178
t178 265q66 154 66 323t-66 323q-66 153 -178 265t-265 178q-154 66 -323 66zM960 1408q195 0 373 -76q179 -76 307 -204t204 -307q76 -178 76 -373t-76 -373q-76 -179 -204 -307t-307 -204q-178 -76 -373 -76t-373 76q-179 76 -307 204t-204 307q-76 178 -76 373t76 373
q76 179 204 307t307 204q178 76 373 76z" />
    <glyph glyph-name="backspace" unicode="Backspace" 
d="M1709 723l-274 -275l274 -275l-90 -90l-275 274l-275 -274l-90 90l274 275l-274 275l90 90l275 -274l275 274zM1920 -128v1152h-1099l-631 -631l624 -521h1106zM2048 -256h-1280l-768 640l768 768h1280v-1408z" />
    <glyph glyph-name="tip" unicode="Tip" horiz-adv-x="1920" 
d="M960 0q52 0 90 -38t38 -90t-38 -90t-90 -38t-90 38t-38 90t38 90t90 38zM977 1088q99 0 169 -70t70 -168t-68 -167l-251 -252q-31 -31 -31 -77t32 -78t80 -32q46 0 78 33t32 78h128q0 -99 -70 -169t-169 -70t-169 70t-70 168t68 167l251 252q31 31 31 77t-32 78t-79 32
t-79 -32t-32 -79h-128q0 99 70 169t169 70zM960 1280q-169 0 -323 -66q-153 -66 -265 -178t-178 -265q-66 -154 -66 -323t66 -323q66 -153 178 -265t265 -178q154 -66 323 -66t323 66q153 66 265 178t178 265q66 154 66 323t-66 323q-66 153 -178 265t-265 178
q-154 66 -323 66zM960 1408q195 0 373 -76q179 -76 307 -204t204 -307q76 -178 76 -373t-76 -373q-76 -179 -204 -307t-307 -204q-178 -76 -373 -76t-373 76q-179 76 -307 204t-204 307q-76 178 -76 373t76 373q76 179 204 307t307 204q178 76 373 76z" />
    <glyph glyph-name="help" unicode="Help" horiz-adv-x="711" 
d="M363 -256q53 0 91 -38t37 -90q1 -52 -37 -90t-91 -38t-91 38t-37 90q-1 52 37 90t91 38zM356 1408q148 0 251 -104q104 -104 104 -250t-101 -250l-418 -418q-64 -66 -64 -159t67 -160t161 -67t160 67q67 67 67 161h128q0 -148 -104 -252q-103 -104 -251 -104t-252 105
t-104 250t101 249l418 418q64 66 64 159q-1 93 -67 160t-160 67t-161 -67t-67 -161h-128q0 148 104 252t252 104z" />
    <glyph glyph-name="info" unicode="Info" horiz-adv-x="1920" 
d="M1024 -128h-128v768h128v-768zM960 1024q52 0 90 -38t38 -90t-38 -90t-90 -38t-90 38t-38 90t38 90t90 38zM960 1280q-169 0 -323 -66q-153 -66 -265 -178t-178 -265q-66 -154 -66 -323t66 -323q66 -153 178 -265t265 -178q154 -66 323 -66t323 66q153 66 265 178
t178 265q66 154 66 323t-66 323q-66 153 -178 265t-265 178q-154 66 -323 66zM960 1408q195 0 373 -76q179 -76 307 -204t204 -307q76 -178 76 -373t-76 -373q-76 -179 -204 -307t-307 -204q-178 -76 -373 -76t-373 76q-179 76 -307 204t-204 307q-76 178 -76 373t76 373
q76 179 204 307t307 204q178 76 373 76z" />
    <glyph glyph-name="warning" unicode="Warning" horiz-adv-x="1920" 
d="M960 125q52 1 90 -37t38 -91t-38 -91t-90 -37q-52 -1 -90 37t-38 91t38 91t90 37zM1024 253h-128v512h128v-512zM214 -259h1492l-746 1393zM1920 -387h-1920l960 1792z" />
    <glyph glyph-name="largegrid" unicode="Largegrid" 
d="M1664 -128v-256h256v256h-256zM896 -128v-256h256v256h-256zM128 -128v-256h256v256h-256zM2048 -512h-512v512h512v-512zM1280 -512h-512v512h512v-512zM512 -512h-512v512h512v-512zM1664 640v-256h256v256h-256zM896 640v-256h256v256h-256zM128 640v-256h256v256
h-256zM2048 256h-512v512h512v-512zM1280 256h-512v512h512v-512zM512 256h-512v512h512v-512zM1664 1408v-256h256v256h-256zM896 1408v-256h256v256h-256zM128 1408v-256h256v256h-256zM2048 1024h-512v512h512v-512zM1280 1024h-512v512h512v-512zM512 1024h-512v512h512
v-512z" />
    <glyph glyph-name="grid" unicode="Grid" 
d="M1280 256v-640h640v640h-640zM128 256v-640h640v640h-640zM2048 -512h-896v896h896v-896zM896 -512h-896v896h896v-896zM1280 1408v-640h640v640h-640zM128 1408v-640h640v640h-640zM2048 640h-896v896h896v-896zM896 640h-896v896h896v-896z" />
    <glyph glyph-name="layout" unicode="Layout" 
d="M1024 512v-896h896v896h-896zM128 512v-896h384v896h-384zM2048 -512h-1152v1152h1152v-1152zM640 -512h-640v1152h640v-1152zM128 1408v-384h1792v384h-1792zM2048 896h-2048v640h2048v-640z" />
    <glyph glyph-name="rows" unicode="Rows" 
d="M128 -128v-256h1792v256h-1792zM2048 -512h-2048v512h2048v-512zM128 640v-256h1792v256h-1792zM2048 256h-2048v512h2048v-512zM128 1408v-256h1792v256h-1792zM2048 1024h-2048v512h2048v-512z" />
    <glyph glyph-name="columns" unicode="Columns" 
d="M1664 1408v-1792h256v1792h-256zM896 1408v-1792h256v1792h-256zM128 1408v-1792h256v1792h-256zM2048 -512h-512v2048h512v-2048zM1280 -512h-512v2048h512v-2048zM512 -512h-512v2048h512v-2048z" />
    <glyph glyph-name="list" unicode="List" 
d="M2048 -512h-2048v128h2048v-128zM2048 128h-2048v128h2048v-128zM2048 768h-2048v128h2048v-128zM2048 1408h-2048v128h2048v-128z" />
    <glyph glyph-name="bulletlist" unicode="Bulletlist" 
d="M2048 -512h-1664v128h1664v-128zM128 -512h-128v128h128v-128zM2048 128h-1664v128h1664v-128zM128 128h-128v128h128v-128zM2048 768h-1664v128h1664v-128zM128 768h-128v128h128v-128zM2048 1408h-1664v128h1664v-128zM128 1408h-128v128h128v-128z" />
    <glyph glyph-name="addlist" unicode="Addlist" 
d="M896 -512h-896v128h896v-128zM896 128h-896v128h896v-128zM1664 512h384v-128h-384v-384h-128v384h-384v128h384v384h128v-384zM896 768h-896v128h896v-128zM896 1408h-896v128h896v-128z" />
    <glyph glyph-name="login" unicode="Login" 
d="M0 384v128h1163l-275 275l91 90l429 -429l-429 -429l-91 90l275 275h-1163zM2048 -512h-1408v512h128v-384h1152v1664h-1152v-384h-128v512h1408v-1920z" />
    <glyph glyph-name="logout" unicode="Logout" 
d="M640 384v128h1163l-275 275l91 90l429 -429l-429 -429l-91 90l275 275h-1163zM1408 896h-128v384h-1152v-1664h1152v384h128v-512h-1408v1920h1408v-512z" />
    <glyph glyph-name="share" unicode="Share" 
d="M768 765v-768h-128v896h1163l-275 274l91 91l429 -429l-429 -429l-91 90l275 275h-1035zM1152 1278h-1024v-1666h1664v646h128v-773h-1920v1920h1152v-127z" />
    <glyph glyph-name="resizeup" unicode="Resi&#x7a;eup" 
d="M512 -384v-128h-512v512h128v-293l467 466l90 -90l-466 -467h293zM2048 1024h-128v293l-467 -466l-90 90l466 467h-293v128h512v-512z" />
    <glyph glyph-name="resizedown" unicode="Resi&#x7a;edown" horiz-adv-x="1882" 
d="M685 -256h-128v294l-467 -467l-90 90l467 467h-294v128h512v-512zM1709 896v-128h-512v512h128v-294l467 467l90 -90l-467 -467h294z" />
    <glyph glyph-name="carets" unicode="Carets" horiz-adv-x="603" 
d="M603 -211l-302 -301l-301 301l91 91l210 -211l211 211zM603 1235l-91 -91l-211 211l-210 -211l-91 91l301 301z" />
    <glyph glyph-name="menuup" unicode="Menuup" horiz-adv-x="603" 
d="M603 467l-91 -91l-211 211l-210 -211l-91 91l301 301z" />
    <glyph glyph-name="menuright" unicode="Menuright" horiz-adv-x="392" 
d="M392 513l-301 -302l-91 91l211 211l-211 210l91 91z" />
    <glyph glyph-name="menudown" unicode="Menudown" horiz-adv-x="603" 
d="M603 557l-301 -301l-302 301l91 91l211 -211l210 211z" />
    <glyph glyph-name="menuleft" unicode="Menuleft" horiz-adv-x="392" 
d="M392 723l-211 -211l211 -210l-91 -91l-301 301l301 302z" />
    <glyph glyph-name="navigateup" unicode="Navigateup" horiz-adv-x="1115" 
d="M1115 339l-91 -91l-467 467l-466 -467l-91 91l557 557z" />
    <glyph glyph-name="navigateright" unicode="Navigateright" horiz-adv-x="648" 
d="M648 512l-557 -558l-91 91l467 467l-467 466l91 91z" />
    <glyph glyph-name="navigatedown" unicode="Navigatedown" horiz-adv-x="1115" 
d="M1115 685l-557 -557l-558 557l91 91l467 -467l466 467z" />
    <glyph glyph-name="navigateleft" unicode="Navigateleft" horiz-adv-x="648" 
d="M648 979l-467 -467l467 -466l-91 -91l-557 557l557 558z" />
    <glyph glyph-name="top" unicode="Top" horiz-adv-x="1883" 
d="M1883 211l-91 -91l-851 851l-850 -851l-91 91l941 941z" />
    <glyph glyph-name="next" unicode="Next" horiz-adv-x="1032" 
d="M1032 513l-941 -942l-91 91l851 851l-851 850l91 91z" />
    <glyph glyph-name="bottom" unicode="Bottom" horiz-adv-x="1882" 
d="M1882 813l-941 -941l-941 941l90 91l851 -851l851 851z" />
    <glyph glyph-name="previous" unicode="Previous" horiz-adv-x="1032" 
d="M1032 1363l-851 -851l851 -850l-91 -91l-941 941l941 942z" />
    <glyph glyph-name="up" unicode="Up" horiz-adv-x="1115" 
d="M622 -512h-129v1675l-402 -403l-91 91l558 557l557 -557l-91 -91l-402 403v-1675z" />
    <glyph glyph-name="upright" unicode="Upright" horiz-adv-x="1453" 
d="M1453 384h-128v550l-1235 -1235l-90 90l1235 1235h-550v128h768v-768z" />
    <glyph glyph-name="right" unicode="Right" horiz-adv-x="1920" 
d="M0 384v128h1675l-403 403l91 90l557 -557l-557 -557l-91 90l403 403h-1675z" />
    <glyph glyph-name="down" unicode="Down" horiz-adv-x="1114" 
d="M493 1408h128v-1675l403 403l90 -91l-557 -557l-557 557l90 91l403 -403v1675z" />
    <glyph glyph-name="left" unicode="Left" horiz-adv-x="1920" 
d="M1920 512v-128h-1675l403 -403l-91 -90l-557 557l557 557l91 -90l-403 -403h1675z" />
    <glyph glyph-name="upleft" unicode="Upleft" horiz-adv-x="1453" 
d="M768 1024h-550l1235 -1235l-90 -90l-1235 1235v-550h-128v768h768v-128z" />
    <glyph glyph-name="directup" unicode="Directup" horiz-adv-x="1024" 
d="M266 384h492l-246 307zM1024 256h-1024l512 640z" />
    <glyph glyph-name="directright" unicode="Directright" horiz-adv-x="640" 
d="M128 266l307 246l-307 246v-492zM640 512l-640 -512v1024z" />
    <glyph glyph-name="directdown" unicode="Directdown" horiz-adv-x="1024" 
d="M266 640l246 -307l246 307h-492zM512 128l-512 640h1024z" />
    <glyph glyph-name="directleft" unicode="Directleft" horiz-adv-x="640" 
d="M205 512l307 -246v492zM640 0l-640 512l640 512v-1024z" />
    <glyph glyph-name="ascend" unicode="Ascend" horiz-adv-x="1792" 
d="M262 128h1268l-634 816zM1792 0h-1792l896 1152z" />
    <glyph glyph-name="rightside" unicode="Rightside" horiz-adv-x="1152" 
d="M128 -122l816 634l-816 634v-1268zM1152 512l-1152 -896v1792z" />
    <glyph glyph-name="descend" unicode="Descend" horiz-adv-x="1792" 
d="M262 896l634 -816l634 816h-1268zM896 -128l-896 1152h1792z" />
    <glyph glyph-name="leftside" unicode="Leftside" horiz-adv-x="1152" 
d="M208 512l816 -634v1268zM1152 -384l-1152 896l1152 896v-1792z" />
    <glyph glyph-name="upbutton" unicode="Upbutton" horiz-adv-x="1920" 
d="M1024 0h-128v659l-147 -147l-90 91l301 301l301 -301l-90 -91l-147 147v-659zM960 1280q-169 0 -323 -66q-153 -66 -265 -178t-178 -265q-66 -154 -66 -323t66 -323q66 -153 178 -265t265 -178q154 -66 323 -66t323 66q153 66 265 178t178 265q66 154 66 323t-66 323
q-66 153 -178 265t-265 178q-154 66 -323 66zM960 1408q195 0 373 -76q179 -76 307 -204t204 -307q76 -178 76 -373t-76 -373q-76 -179 -204 -307t-307 -204q-178 -76 -373 -76t-373 76q-179 76 -307 204t-204 307q-76 178 -76 373t76 373q76 179 204 307t307 204
q178 76 373 76z" />
    <glyph glyph-name="rightbutton" unicode="Rightbutton" horiz-adv-x="1920" 
d="M512 384v128h659l-147 147l91 90l301 -301l-301 -301l-91 90l147 147h-659zM960 1280q-169 0 -323 -66q-153 -66 -265 -178t-178 -265q-66 -154 -66 -323t66 -323q66 -153 178 -265t265 -178q154 -66 323 -66t323 66q153 66 265 178t178 265q66 154 66 323t-66 323
q-66 153 -178 265t-265 178q-154 66 -323 66zM960 1408q195 0 373 -76q179 -76 307 -204t204 -307q76 -178 76 -373t-76 -373q-76 -179 -204 -307t-307 -204q-178 -76 -373 -76t-373 76q-179 76 -307 204t-204 307q-76 178 -76 373t76 373q76 179 204 307t307 204
q178 76 373 76z" />
    <glyph glyph-name="downbutton" unicode="Downbutton" horiz-adv-x="1920" 
d="M896 896h128v-659l147 147l90 -91l-301 -301l-301 301l90 91l147 -147v659zM960 1280q-169 0 -323 -66q-153 -66 -265 -178t-178 -265q-66 -154 -66 -323t66 -323q66 -153 178 -265t265 -178q154 -66 323 -66t323 66q153 66 265 178t178 265q66 154 66 323t-66 323
q-66 153 -178 265t-265 178q-154 66 -323 66zM960 1408q195 0 373 -76q179 -76 307 -204t204 -307q76 -178 76 -373t-76 -373q-76 -179 -204 -307t-307 -204q-178 -76 -373 -76t-373 76q-179 76 -307 204t-204 307q-76 178 -76 373t76 373q76 179 204 307t307 204
q178 76 373 76z" />
    <glyph glyph-name="leftbutton" unicode="Leftbutton" horiz-adv-x="1920" 
d="M1408 512v-128h-659l147 -147l-91 -90l-301 301l301 301l91 -90l-147 -147h659zM960 1280q-169 0 -323 -66q-153 -66 -265 -178t-178 -265q-66 -154 -66 -323t66 -323q66 -153 178 -265t265 -178q154 -66 323 -66t323 66q153 66 265 178t178 265q66 154 66 323t-66 323
q-66 153 -178 265t-265 178q-154 66 -323 66zM960 1408q195 0 373 -76q179 -76 307 -204t204 -307q76 -178 76 -373t-76 -373q-76 -179 -204 -307t-307 -204q-178 -76 -373 -76t-373 76q-179 76 -307 204t-204 307q-76 178 -76 373t76 373q76 179 204 307t307 204
q178 76 373 76z" />
    <glyph glyph-name=".notdef" horiz-adv-x="1920" 
d="M960 0q54 0 91 -37t37 -91t-37 -91t-91 -37t-91 37t-37 91t37 91t91 37zM978 1088q100 0 169 -69t69 -165t-64 -174l-256 -248q-32 -48 -32 -84t32 -68t80 -32t80 32q32 21 32 72h128q0 -96 -68 -164t-166 -68t-174 64q-72 72 -72 174t72 162l248 256q32 20 32 70t-32 82
t-78 32t-80 -32t-34 -80h-128q0 100 72 170q70 70 170 70zM128 1280v-1664h1664v1664h-1664zM1920 -512h-1920v1920h1920v-1920z" />
    <glyph glyph-name=".null" horiz-adv-x="0" 
 />
    <glyph glyph-name="nonmarkingreturn" horiz-adv-x="682" 
 />
    <glyph glyph-name="null" horiz-adv-x="512" 
 />
    <glyph glyph-name="null" horiz-adv-x="512" 
 />
    <glyph glyph-name="CR" unicode="&#xd;" horiz-adv-x="600" 
 />
    <glyph glyph-name="space" unicode=" " horiz-adv-x="512" 
 />
    <glyph glyph-name="A" unicode="A" horiz-adv-x="1536" 
d="M536 640h472l-224 688zM1432 0h-216l-152 480h-576l-160 -480h-200l536 1536h240z" />
    <glyph glyph-name="B" unicode="B" horiz-adv-x="1280" 
d="M1048 426q0 114 -70 196t-194 82h-464v-536h464q128 0 196 72t68 186zM984 1128q0 240 -296 240h-368v-496h368q150 0 223 68t73 188zM1240 409q0 -169 -120 -289t-320 -120h-672v1536h608q204 0 322 -108t118 -276q0 -116 -54 -202t-154 -134q146 -62 209 -150t63 -257z
" />
    <glyph glyph-name="C" unicode="C" horiz-adv-x="1536" 
d="M800 -40q-158 0 -286 59t-212 163q-174 216 -174 553t172 565q84 110 214 173t294 63q491 0 576 -496h-192q-36 168 -132 248t-268 80q-220 0 -346 -172t-126 -458t130 -448t358 -162q183 0 281 101t135 315h192q-73 -584 -616 -584z" />
    <glyph glyph-name="D" unicode="D" horiz-adv-x="1408" 
d="M1120 770q0 288 -114 443t-334 155h-352v-1200h352q220 0 334 157t114 445zM1312 776q0 -356 -164 -566t-444 -210h-576v1536h576q186 0 324 -95t211 -267t73 -398z" />
    <glyph glyph-name="E" unicode="E" horiz-adv-x="1280" 
d="M128 1536h1032v-168h-840v-488h816v-168h-816v-544h880v-168h-1072v1536z" />
    <glyph glyph-name="F" unicode="F" horiz-adv-x="1280" 
d="M320 888h712v-168h-712v-720h-192v1536h1000v-168h-808v-480z" />
    <glyph glyph-name="G" unicode="G" horiz-adv-x="1664" 
d="M792 -40q-176 0 -334 98t-244 276q-86 176 -86 374t49 346q49 146 139 253t228 168q137 61 304 61q250 0 416 -130t208 -358h-200q-30 146 -145 233t-287 87q-236 0 -378 -168t-142 -448q0 -282 142 -453t394 -171q204 0 334 126t130 330v40h-456v168h624v-792h-120
l-48 200q-108 -124 -230 -182t-298 -58z" />
    <glyph glyph-name="H" unicode="H" horiz-adv-x="1408" 
d="M1088 704h-768v-704h-192v1536h192v-664h768v664h192v-1536h-192v704z" />
    <glyph glyph-name="I" unicode="I" horiz-adv-x="512" 
d="M128 1536h192v-1536h-192v1536z" />
    <glyph glyph-name="J" unicode="J" horiz-adv-x="1152" 
d="M960 1536v-1152q0 -192 -112 -308t-306 -116t-304 108t-110 292v120h192v-88q0 -132 58 -202t168 -70t166 78t56 258v1080h192z" />
    <glyph glyph-name="K" unicode="K" horiz-adv-x="1408" 
d="M320 0h-192v1536h192v-800l784 800h240l-648 -648l616 -888h-224l-528 768l-240 -248v-520z" />
    <glyph glyph-name="L" unicode="L" horiz-adv-x="1152" 
d="M128 1536h192v-1368h736v-168h-928v1536z" />
    <glyph glyph-name="M" unicode="M" horiz-adv-x="1664" 
d="M312 0h-184v1536h264l440 -1344l440 1344h264v-1536h-184v1288l-416 -1288h-200l-424 1288v-1288z" />
    <glyph glyph-name="N" unicode="N" horiz-adv-x="1408" 
d="M312 0h-184v1536h208l776 -1264v1264h184v-1536h-216l-768 1248v-1248z" />
    <glyph glyph-name="O" unicode="O" horiz-adv-x="1664" 
d="M1376 734q0 278 -145 456t-383 178q-157 0 -278 -81q-122 -81 -186 -225t-64 -326q0 -276 144 -442t384 -166t384 164t144 442zM1568 720q0 -161 -51 -301q-51 -139 -143 -241t-228 -160t-324 -58t-352 97t-252 273q-90 176 -90 406t89 412t253 285t380 103
q215 0 379 -102q163 -102 251 -287t88 -427z" />
    <glyph glyph-name="P" unicode="P" horiz-adv-x="1272" 
d="M1008 1102q0 122 -78 194t-210 72h-400v-528h400q132 0 210 70t78 192zM1208 1108q0 -198 -118 -316q-118 -120 -298 -120h-472v-672h-192v1536h616q222 0 343 -115t121 -313z" />
    <glyph glyph-name="Q" unicode="Q" horiz-adv-x="1664" 
d="M1376 743q0 279 -145 452t-383 173t-383 -173t-145 -451t144 -446q144 -170 384 -170q131 0 248 64l-152 120l88 120l184 -152q160 184 160 463zM1568 744q0 -356 -208 -576l192 -160l-96 -120l-216 184q-168 -112 -386 -112t-383 99q-163 99 -253 277t-90 408t89 410
t253 281t378 101t378 -101t253 -281t89 -410z" />
    <glyph glyph-name="R" unicode="R" horiz-adv-x="1408" 
d="M1072 1100q0 134 -68 201t-220 67h-464v-560h464q144 0 216 79t72 213zM1272 1136q0 -290 -232 -400q118 -48 156 -124t44 -260q0 -150 17 -209t71 -95v-48h-232q-40 107 -40 248v128q0 136 -60 200t-188 64h-488v-640h-192v1536h688q220 0 338 -104t118 -296z" />
    <glyph glyph-name="S" unicode="S" horiz-adv-x="1408" 
d="M1264 408q0 -204 -154 -326t-428 -122t-434 136t-160 392h184q0 -168 106 -264t310 -96q384 0 384 264q0 88 -66 146t-206 94l-376 104q-288 83 -288 352q0 204 142 326t393 122q253 0 395 -121t142 -343h-176q0 148 -98 226t-262 78t-254 -74t-90 -190q0 -82 52 -128
t188 -88l376 -112q152 -42 236 -140t84 -236z" />
    <glyph glyph-name="T" unicode="T" horiz-adv-x="1408" 
d="M808 0h-184v1368h-496v168h1168v-168h-488v-1368z" />
    <glyph glyph-name="U" unicode="U" horiz-adv-x="1408" 
d="M1272 1536v-1080q0 -224 -156 -360t-420 -136t-416 134t-152 362v1080h192v-1080q0 -156 104 -242t278 -86t280 89t106 239v1080h184z" />
    <glyph glyph-name="V" unicode="V" horiz-adv-x="1408" 
d="M664 0l-536 1536h208l440 -1304l408 1304h208l-520 -1536h-208z" />
    <glyph glyph-name="W" unicode="W" 
d="M1400 0l-344 1264l-336 -1264h-208l-384 1536h216l280 -1256l328 1256h208l336 -1256l280 1256h208l-376 -1536h-208z" />
    <glyph glyph-name="X" unicode="X" horiz-adv-x="1536" 
d="M736 640l-408 -640h-232l528 784l-496 752h232l384 -616l384 616h232l-504 -752l528 -784h-240z" />
    <glyph glyph-name="Y" unicode="Y" horiz-adv-x="1536" 
d="M896 0h-192v600l-576 936h232l440 -752l424 752h232l-560 -936v-600z" />
    <glyph glyph-name="Z" unicode="Z" horiz-adv-x="1280" 
d="M128 1368v168h1080v-176l-896 -1192h896v-168h-1136v168l896 1200h-840z" />
    <glyph glyph-name="a" unicode="a" horiz-adv-x="1152" 
d="M784 368v160q-42 -18 -90 -28t-185 -28t-199 -63t-62 -129q0 -160 216 -160q128 0 224 70t96 178zM968 -16q-64 0 -114 42t-62 102q-71 -76 -168 -118t-200 -42q-162 0 -257 84t-95 228q0 196 192 280q82 31 263 53q181 23 219 49t38 82v40q0 78 -62 119t-180 41
t-180 -44t-74 -140h-168q6 180 116 262t312 82t302 -76q102 -76 102 -220v-592q0 -88 96 -88q16 0 32 8v-128q-84 -24 -112 -24z" />
    <glyph glyph-name="b" unicode="b" horiz-adv-x="1152" 
d="M912 536q0 180 -87 294t-225 114q-138 6 -221 -105t-83 -297t84 -300t220 -114q138 0 225 114t87 294zM628 1104q216 0 338 -148t122 -408t-127 -420t-343 -160t-338 184v-152h-152v1496h168v-568q117 176 332 176z" />
    <glyph glyph-name="c" unicode="c" horiz-adv-x="1152" 
d="M592 -32q-206 0 -335 151t-129 411t132 418q132 156 348 156q184 0 295 -99t129 -293h-176q-12 112 -78 172t-170 60q-144 0 -224 -109t-80 -303t80 -300q80 -104 224 -104q110 0 175 58t89 182h168q-12 -188 -126 -294q-116 -106 -322 -106z" />
    <glyph glyph-name="d" unicode="d" horiz-adv-x="1152" 
d="M904 536q0 186 -83 297t-221 111t-226 -112q-86 -112 -86 -296t88 -296t226 -112t220 112q82 110 82 296zM920 0v160q-66 -100 -148 -146t-196 -46q-216 0 -340 153t-124 417t126 414q126 152 342 152t324 -168v560h168v-1496h-152z" />
    <glyph glyph-name="e" unicode="e" horiz-adv-x="1152" 
d="M912 624v16q0 128 -86 216t-210 88q-126 0 -209 -88t-95 -232h600zM624 128q213 0 280 200h168q-30 -164 -152 -262t-304 -98q-228 0 -358 148t-130 412t133 420t355 156q154 0 270 -74t163 -190t47 -352h-792q6 -180 92 -270t228 -90z" />
    <glyph glyph-name="f" unicode="f" horiz-adv-x="640" 
d="M440 0h-168v936h-144v136h144v184q0 112 66 176t182 64q64 0 96 -8v-136h-56q-120 0 -120 -112v-168h176v-136h-176v-936z" />
    <glyph glyph-name="g" unicode="g" horiz-adv-x="1152" 
d="M896 532q0 194 -75 303t-213 109t-222 -109q-82 -109 -82 -300t80 -299t219 -108t216 105t77 299zM1072 1072v-896q0 -452 -204 -566q-102 -58 -285 -58q-181 0 -293 86t-130 242h176q32 -184 264 -184q154 0 233 94t79 298v72q-85 -104 -164 -148t-180 -44
q-188 0 -314 156t-126 409t126 412t329 159t329 -184v152h160z" />
    <glyph glyph-name="h" unicode="h" horiz-adv-x="1152" 
d="M808 0v744q0 104 -60 156t-156 52q-132 0 -214 -99t-82 -261v-592h-168v1496h168v-568q79 96 155 136t211 40q134 0 228 -80t94 -216v-808h-176z" />
    <glyph glyph-name="i" unicode="i" horiz-adv-x="384" 
d="M128 1072h168v-1072h-168v1072zM104 1448h216v-216h-216v216z" />
    <glyph glyph-name="j" unicode="j" horiz-adv-x="640" 
d="M424 1072v-1296q0 -108 -76 -166t-220 -58q-32 0 -56 8v144h40q76 -6 110 28t34 108v1232h168zM232 1448h216v-216h-216v216z" />
    <glyph glyph-name="k" unicode="k" horiz-adv-x="1152" 
d="M296 0h-168v1496h168v-880l456 456h224l-376 -368l440 -704h-216l-360 584l-168 -168v-416z" />
    <glyph glyph-name="l" unicode="l" horiz-adv-x="384" 
d="M128 1496h168v-1496h-168v1496z" />
    <glyph glyph-name="m" unicode="m" horiz-adv-x="1664" 
d="M752 736q0 216 -206 216q-102 0 -176 -80t-74 -200v-672h-168v1072h160v-152q66 96 144 140t182 44t173 -38t117 -122q71 88 145 124t203 36q128 0 206 -76t78 -220v-808h-168v736q0 102 -51 159t-150 57t-173 -80t-74 -200v-672h-168v736z" />
    <glyph glyph-name="n" unicode="n" horiz-adv-x="1152" 
d="M816 0v744q0 96 -61 152t-178 56t-199 -99t-82 -261v-592h-168v1072h160v-176q74 110 154 159t218 49t230 -80q94 -80 94 -216v-808h-168z" />
    <glyph glyph-name="o" unicode="o" horiz-adv-x="1152" 
d="M920 544q0 194 -80 301t-224 107t-228 -108t-84 -300t84 -300t225 -108q143 0 225 108q82 106 82 300zM1096 547q0 -275 -128 -423t-355 -148q-225 0 -355 150t-130 422t127 418t358 146t357 -146t126 -419z" />
    <glyph glyph-name="p" unicode="p" horiz-adv-x="1152" 
d="M912 534q0 184 -86 297t-226 113t-222 -112t-82 -301q0 -187 82 -295t222 -108t226 110q86 112 86 296zM1088 534q0 -264 -126 -414q-126 -152 -338 -152q-102 0 -179 38t-149 122v-576h-168v1520h152v-160q120 192 340 192t344 -153t124 -417z" />
    <glyph glyph-name="q" unicode="q" horiz-adv-x="1152" 
d="M888 533q0 185 -82 298t-220 113t-226 -112t-88 -296t88 -296t226 -112t220 110t82 295zM96 528q0 264 126 420t342 156q214 0 340 -176v144h152v-1520h-168v584q-121 -168 -334 -168q-214 0 -336 148t-122 412z" />
    <glyph glyph-name="r" unicode="r" horiz-adv-x="768" 
d="M296 560v-560h-168v1072h160v-192q72 120 138 172t150 52q40 0 64 -8v-168q-192 -6 -268 -94t-76 -274z" />
    <glyph glyph-name="s" unicode="s" horiz-adv-x="1024" 
d="M1000 304q0 -156 -120 -246t-328 -90t-313 87t-111 273h184q10 -114 72 -157t182 -43t188 42q70 42 70 109t-38 97t-130 56l-160 32q-192 48 -268 117t-76 207t114 226q114 90 301 90q185 0 285 -86t100 -242h-176q-12 168 -216 168q-102 0 -163 -44t-61 -108t46 -100
t146 -60l168 -40q164 -36 234 -102t70 -186z" />
    <glyph glyph-name="t" unicode="t" horiz-adv-x="640" 
d="M480 -16q-100 0 -154 46t-54 130v776h-144v136h144v296h168v-296h176v-136h-176v-704q0 -54 21 -75t80 -21t75 8v-144q-112 -16 -136 -16z" />
    <glyph glyph-name="u" unicode="u" horiz-adv-x="1024" 
d="M832 0v168q-79 -108 -160 -154t-218 -46q-138 0 -232 82t-94 214v808h168v-744q0 -96 61 -152t178 -56t199 99t82 261v592h168v-1072h-152z" />
    <glyph glyph-name="v" unicode="v" horiz-adv-x="1152" 
d="M504 0l-376 1072h192l288 -872l304 872h192l-408 -1072h-192z" />
    <glyph glyph-name="w" unicode="w" horiz-adv-x="1664" 
d="M1056 0l-216 840l-208 -840h-192l-312 1072h192l216 -832l208 832h208l208 -832l216 832h192l-320 -1072h-192z" />
    <glyph glyph-name="x" unicode="x" horiz-adv-x="1152" 
d="M592 416l-272 -416h-192l376 544l-352 528h192l256 -384l256 384h192l-360 -520l376 -552h-200z" />
    <glyph glyph-name="y" unicode="y" horiz-adv-x="1152" 
d="M312 -448q-64 0 -112 24v160q64 -16 103 -16q86 0 121 104l64 168l-360 1080h184l272 -832l296 832h184l-472 -1296q-94 -224 -280 -224z" />
    <glyph glyph-name="z" unicode="z" horiz-adv-x="1152" 
d="M168 928v144h808v-152l-640 -768h664v-152h-872v152l640 776h-600z" />
    <glyph glyph-name="DEL" horiz-adv-x="600" 
 />
  </font>
</defs>
</svg>
